<?xml version="1.0" encoding="UTF-8"?>
<svg id="Layer_2" data-name="Layer 2" xmlns="http://www.w3.org/2000/svg" xmlns:xlink="http://www.w3.org/1999/xlink" viewBox="0 0 753.59 187.51">
  <defs>
    <style>
      .cls-1, .cls-2, .cls-3 {
        fill: none;
      }

      .cls-4 {
        fill: #231f20;
      }

      .cls-2 {
        stroke: #808184;
        stroke-miterlimit: 10;
        stroke-width: .59px;
      }

      .cls-5 {
        fill: #542e90;
      }

      .cls-6 {
        clip-path: url(#clippath-11);
      }

      .cls-7 {
        clip-path: url(#clippath-10);
      }

      .cls-8 {
        clip-path: url(#clippath-13);
      }

      .cls-9 {
        clip-path: url(#clippath-12);
      }

      .cls-10 {
        clip-path: url(#clippath-1);
      }

      .cls-11 {
        clip-path: url(#clippath-4);
      }

      .cls-12 {
        clip-path: url(#clippath-7);
      }

      .cls-13 {
        clip-path: url(#clippath-6);
      }

      .cls-14 {
        clip-path: url(#clippath-9);
      }

      .cls-15 {
        clip-path: url(#clippath-8);
      }

      .cls-16 {
        clip-path: url(#clippath-5);
      }

      .cls-17 {
        fill: #fff;
      }

      .cls-18 {
        fill: #9087c0;
      }

      .cls-19 {
        fill: #54565a;
      }

      .cls-20 {
        fill: #403789;
      }

      .cls-3 {
        stroke: #474c55;
        stroke-width: 2.09px;
      }

      .cls-21 {
        clip-path: url(#clippath);
      }
    </style>
    <clipPath id="clippath">
      <rect class="cls-1" width="753.59" height="187.51"/>
    </clipPath>
    <clipPath id="clippath-1">
      <rect class="cls-1" y="0" width="753.59" height="187.51"/>
    </clipPath>
    <clipPath id="clippath-4">
      <rect class="cls-1" y="0" width="753.59" height="187.51"/>
    </clipPath>
    <clipPath id="clippath-5">
      <rect class="cls-1" y="0" width="753.59" height="187.51"/>
    </clipPath>
    <clipPath id="clippath-6">
      <rect class="cls-1" y="0" width="753.59" height="187.51"/>
    </clipPath>
    <clipPath id="clippath-7">
      <rect class="cls-1" y="0" width="753.59" height="187.51"/>
    </clipPath>
    <clipPath id="clippath-8">
      <rect class="cls-1" y="0" width="753.59" height="187.51"/>
    </clipPath>
    <clipPath id="clippath-9">
      <rect class="cls-1" y="0" width="753.59" height="187.51"/>
    </clipPath>
    <clipPath id="clippath-10">
      <rect class="cls-1" y="0" width="753.59" height="187.51"/>
    </clipPath>
    <clipPath id="clippath-11">
      <rect class="cls-1" y="0" width="753.59" height="187.51"/>
    </clipPath>
    <clipPath id="clippath-12">
      <rect class="cls-1" y="0" width="753.59" height="187.51"/>
    </clipPath>
    <clipPath id="clippath-13">
      <rect class="cls-1" y="0" width="753.59" height="187.51"/>
    </clipPath>
  </defs>
  <g id="Layer_1-2" data-name="Layer 1">
    <g class="cls-21">
      <g class="cls-10">
        <path class="cls-17" d="M99.51,72.3s-.02-.07-.04-.08c-6.79-3.35-13.66-6.51-20.52-9.76-13.04,5.99-26.08,11.98-39.19,18,.2.1.34.18.49.25,2.2,1.02,4.41,2.04,6.62,3.05,4.32,1.99,8.65,3.97,12.97,5.96.18.08.36.15.54.23,13.04-5.86,26.06-11.71,39.08-17.57.02-.01.04-.05.05-.07M157.17,96.64c-.19.02-.35.05-.51.06M146.68,97.58c-.33.03-.6-.03-.87-.23-1.71-1.26-3.42-2.5-5.14-3.74-.13-.1-.26-.2-.39-.3.06-.45.28-.83.35-1.26-.13-.07-.24-.14-.36-.2-4.58-2.19-9.15-4.39-13.73-6.57-2.97-1.41-5.95-2.8-8.92-4.21-1.91-.9-3.84-1.78-5.67-2.84-.1-.06-.2-.11-.31-.16-1.15-.55-2.29-1.1-3.44-1.65-.16-.08-.33-.14-.51-.21-12.92,5.73-25.69,11.79-38.54,17.65-.06.03-.1.08-.19.14,26.32,11.67,52.6,23.32,78.88,34.98.18-.08.34-.14.51-.22,2.98-1.35,5.95-2.72,8.94-4.06,9.11-4.07,18.23-8.13,27.35-12.19,8.76-3.9,17.5-7.82,26.2-11.85.1-.05.23-.05.28-.21-.16-.15-.38-.23-.57-.34-15.21-8.08-30.43-16.15-45.64-24.23-.34-.18-.67-.23-1.04-.19-.56.07-1.12.11-1.68.16-.94.08-1.88.14-2.82.25-.34.04-.6-.05-.87-.24-1.71-1.25-3.42-2.49-5.13-3.74-.12-.09-.23-.18-.38-.29.18-.69.43-1.35.64-2.03.21-.68.43-1.35.66-2.03.22-.67.41-1.35.68-2.03,1.13-.13,2.24-.27,3.36-.4.72-.09,1.44-.17,2.17-.25.69-.08,1.38-.16,2.07-.24.23-.03.45,0,.68.09,2.36.99,4.73,1.98,7.09,2.96.1.04.2.1.32.17-.12,1.47-.32,2.93-.44,4.37.06.05.08.08.11.09,15.9,8.17,31.81,16.35,47.72,24.52.1.05.21.1.31.15.01,0,.03,0,.05,0,.02,0,.03,0,.09,0,12.02-5.48,24.15-10.82,36.23-16.43-.21-.11-.36-.18-.5-.25-3.41-1.6-6.82-3.2-10.23-4.8-17.34-8.14-34.67-16.29-52.01-24.42-14.45-6.78-28.92-13.53-43.38-20.3-.63-.3-.49-.31-1.15,0-16.71,7.68-33.43,15.36-50.14,23.03-3.47,1.59-6.94,3.19-10.41,4.78-.16.07-.31.16-.51.26.18.18.37.23.54.31,17.48,8.26,34.97,16.52,52.45,24.78,1.79.85,3.59,1.69,5.38,2.54.27.13.51.19.81.13.39-.08.79-.1,1.18-.14,1.02-.12,2.04-.23,3.05-.36.27-.04.52,0,.77.1,2.33.98,4.67,1.95,7,2.92.12.05.23.1.37.17M264.62,110.31v54.3H30.66V30.71h233.97v79.5c-.13-.06-.27-.13-.4-.19-7.54-3.84-15.08-7.67-22.63-11.51-.13-.07-.27-.12-.4-.18-.18.08-.34.15-.51.23-5.14,2.38-10.29,4.76-15.43,7.15-13.59,6.33-27.18,12.64-40.82,18.85-10.41,4.74-20.81,9.49-31.21,14.24-1.71.78-3.42,1.57-5.13,2.37-.26.12-.5.16-.74,0-.03-.02-.06-.03-.09-.04-8.43-3.86-16.85-7.73-25.29-11.57-13.56-6.18-27.13-12.36-40.64-18.65-8.85-4.12-17.71-8.23-26.57-12.34-.18-.08-.36-.16-.52-.23-.88.36-23.01,11.64-23.42,11.94.16.08.3.16.44.23,1.46.69,2.92,1.4,4.39,2.08,26.58,12.28,53.18,24.53,79.75,36.83,10.69,4.95,21.35,9.98,32.02,14.98.1.05.21.09.3.14.15-.07.28-.14.42-.2,12.83-6.03,25.66-12.06,38.54-18,23.21-10.7,46.42-21.42,69.63-32.14,2.45-1.13,4.88-2.28,7.32-3.42.33-.15.65-.31.98-.46"/>
        <path class="cls-20" d="M264.62,110.31c-.33.15-.65.31-.98.46-2.44,1.14-4.88,2.29-7.32,3.42-23.21,10.72-46.42,21.44-69.63,32.14-12.88,5.94-25.7,11.97-38.54,18-.13.06-.27.13-.42.2-.09-.04-.2-.09-.3-.14-10.67-5-21.32-10.03-32.02-14.98-26.57-12.3-53.17-24.55-79.75-36.83-1.47-.68-2.93-1.39-4.39-2.08-.15-.07-.29-.15-.44-.23.41-.3,22.54-11.58,23.42-11.94.16.07.34.15.52.23,8.86,4.11,17.72,8.22,26.57,12.34,13.51,6.29,27.08,12.47,40.64,18.65,8.44,3.85,16.86,7.71,25.29,11.57.03.01.06.03.09.04.25.16.48.12.74,0,1.71-.8,3.42-1.59,5.13-2.37,10.4-4.75,20.8-9.5,31.21-14.24,13.64-6.21,27.23-12.52,40.82-18.85,5.14-2.39,10.28-4.77,15.43-7.15.17-.08.33-.15.51-.23.14.06.27.11.4.18,7.54,3.84,15.08,7.67,22.63,11.51.13.06.27.13.4.19v.1Z"/>
        <path class="cls-18" d="M157.93,89.51c-.14-.06-.25-.12-.37-.17-2.33-.97-4.67-1.94-7-2.92-.25-.11-.5-.14-.77-.1-1.02.13-2.04.24-3.05.36-.4.05-.79.07-1.18.14-.3.06-.54,0-.81-.13-1.79-.85-3.59-1.69-5.38-2.54-17.48-8.26-34.97-16.52-52.45-24.78-.17-.08-.36-.14-.54-.31.2-.1.35-.19.51-.26,3.47-1.59,6.94-3.19,10.41-4.78,16.71-7.68,33.43-15.36,50.14-23.03.66-.3.52-.29,1.15,0,14.46,6.76,28.92,13.52,43.38,20.3,17.34,8.13,34.68,16.28,52.01,24.42,3.41,1.6,6.82,3.2,10.23,4.8.15.07.29.14.5.25-12.08,5.62-24.2,10.96-36.23,16.43-.06,0-.07,0-.09,0-.02,0-.03,0-.05,0-.1-.05-.21-.1-.31-.15-15.91-8.17-31.81-16.35-47.72-24.52-.03-.01-.05-.04-.11-.09.12-1.44.32-2.89.44-4.37-.12-.06-.22-.13-.32-.17-2.36-.99-4.73-1.97-7.09-2.96-.23-.1-.44-.12-.68-.09-.69.08-1.38.16-2.07.24-.72.09-1.44.17-2.17.25-1.12.13-2.23.26-3.36.4-.27.68-.46,1.36-.68,2.03-.22.67-.44,1.35-.66,2.03-.21.68-.46,1.34-.64,2.03.15.11.26.21.38.29,1.71,1.25,3.43,2.49,5.14,3.74.27.2.52.28.86.24.93-.11,1.88-.17,2.82-.25.56-.05,1.12-.1,1.68-.16.37-.04.7,0,1.04.19,15.21,8.08,30.43,16.15,45.64,24.23.2.1.41.19.57.34-.05.16-.19.17-.28.21-8.7,4.02-17.45,7.95-26.2,11.85-9.12,4.06-18.24,8.12-27.35,12.2-2.99,1.34-5.96,2.7-8.94,4.05-.17.08-.33.14-.51.22-26.29-11.66-52.57-23.31-78.88-34.98.09-.06.14-.11.19-.14,12.86-5.86,25.62-11.92,38.54-17.65.18.07.35.14.51.21,1.15.55,2.29,1.1,3.44,1.65.1.05.21.1.31.16,1.83,1.06,3.76,1.94,5.67,2.84,2.97,1.41,5.95,2.79,8.92,4.21,4.58,2.18,9.15,4.38,13.73,6.57.12.06.23.13.36.2-.07.43-.29.82-.35,1.26.13.1.25.2.38.3,1.71,1.25,3.43,2.49,5.14,3.74.27.2.54.27.87.23,1.48-.14,2.96-.26,4.45-.4,1.3-.12,2.6-.24,3.9-.36.54-.05,1.09-.09,1.63-.13.16-.01.32-.04.52-.06"/>
        <path class="cls-18" d="M99.5,72.3s-.03.06-.05.07c-13.02,5.86-26.04,11.71-39.08,17.57-.18-.08-.36-.15-.54-.23-4.33-1.99-8.65-3.97-12.97-5.96-2.21-1.01-4.41-2.03-6.62-3.05-.14-.07-.28-.14-.49-.25,13.11-6.02,26.15-12.01,39.19-18,6.86,3.26,13.73,6.42,20.52,9.76.02.01.03.05.04.08"/>
        <line class="cls-3" x1="291.62" y1="0" x2="291.62" y2="187.51"/>
      </g>
      <polygon class="cls-5" points="320.93 34.78 320.93 35.76 323.38 38.5 323.38 57.34 320.07 58.26 320.07 59.37 329.01 59.37 329.01 58.26 326.2 57.51 325.48 56.63 325.48 40.9 341.14 59.55 342.52 59.55 342.52 37.15 345.84 36.14 345.84 34.97 336.76 34.97 336.76 36.29 339.65 37.01 340.35 37.9 340.35 52.79 340.34 52.77 340.16 52.77 324.96 34.78 320.93 34.78"/>
      <g class="cls-11">
        <path class="cls-5" d="M354.47,59.77c-4.42,0-8.66-2.84-8.66-8.88s4.5-9.03,8.66-9.03,8.73,2.73,8.73,8.73-4.64,9.18-8.73,9.18M359.78,51.11c0-4.13-2.25-7.63-5.79-7.63-3.17,0-4.75,2.76-4.75,6.89s1.99,7.74,5.71,7.74c3.17,0,4.83-2.87,4.83-7"/>
        <path class="cls-5" d="M407.68,49.35c0-4.13-2.32-4.94-5.01-4.94-2.28,0-3.76,1.7-3.76,1.7v10.61l.7.89,2.38.83v.93s-8.58,0-8.58,0v-.96l2.43-.92v-17.76c0-3.21-.82-4.09-2.58-4.09v-.85l5.45-1.84h.37s-.18,3.8-.18,6.63v5.12s3.54-2.84,5.97-2.84c3.02,0,5.82,1.25,5.82,5.71v9.14s.7.89.7.89l2.38.83v.93s-8.58,0-8.58,0v-.96l2.36-.89.11-8.17Z"/>
        <path class="cls-5" d="M442.49,49.9c0,5.12,2.91,7.26,6.23,7.26,2.06,0,4.53-.85,4.53-.85l.37.7c-.88.88-3.35,2.76-6.45,2.76-4.2,0-7.96-3.13-7.96-8.88,0-5.23,3.61-9.03,8.11-9.03,3.5,0,6.23,2.1,6.23,6.08,0,1.03-.19,1.95-.19,1.95h-10.87ZM447.91,48.5c1.77-.07,2.4-.41,2.4-2.21,0-1.55-1.11-2.73-3.46-2.73s-4.35,2.17-4.35,5.12l5.42-.18Z"/>
        <path class="cls-5" d="M457.59,59.11c-.26-.11-.92-.48-.96-1.25l-.22-3.5h1.62c.44,2.4,2.06,3.94,4.16,3.94s2.98-1.1,2.98-2.58-1.14-2.14-2.54-2.88l-1.88-.96c-2.69-1.36-4.02-2.47-4.02-5.12,0-3.31,2.4-4.9,6.12-4.9,2.62,0,4.64.99,4.64.99l-.48,4.31h-1.51c0-2.69-1.11-3.69-3.35-3.69-1.51,0-2.91.59-2.91,2.06,0,1.18.48,1.7,3.39,3.21l1.66.85c3.02,1.55,3.87,2.84,3.87,5.34,0,3.02-3.02,4.83-5.97,4.83-1.88,0-3.54-.22-4.61-.66"/>
        <path class="cls-5" d="M486.57,49.9c0,5.12,2.91,7.26,6.23,7.26,2.06,0,4.53-.85,4.53-.85l.37.7c-.88.88-3.35,2.76-6.45,2.76-4.2,0-7.96-3.13-7.96-8.88,0-5.23,3.61-9.03,8.11-9.03,3.5,0,6.23,2.1,6.23,6.08,0,1.03-.19,1.95-.19,1.95h-10.87ZM491.99,48.5c1.77-.07,2.4-.41,2.4-2.21,0-1.55-1.11-2.73-3.46-2.73s-4.35,2.17-4.35,5.12l5.42-.18Z"/>
        <path class="cls-5" d="M531.93,57.6l-.7-.89.04-9.33c0-4.31-2.8-5.53-5.68-5.53-2.43,0-5.86,2.84-5.86,2.84,0-1.55.07-2.95.07-2.95h-.29l-5.38,1.95v.88c2.07,0,2.62,1.84,2.62,5.16v7.74l-2.43.92v.96h8.47l.07-.93-2.38-.83-.7-.89v-10.58s1.29-1.73,3.61-1.73,4.87.85,4.87,4.94l-.11,8.18-2.35.89v.96h8.47l.07-.93-2.38-.83Z"/>
        <path class="cls-5" d="M429.65,59.55l-3.95-10.95-4.52,10.95h-1.55l-4.45-13.52c-.62-1.7-.98-2.69-2.17-2.69v-1.03h7.28v1.04l-2.21.73,3.31,11.2,2.91-7,.68-1.78-1-2.85-1.26-.31v-1.03h7.03v1.11l-2.22.66,3.74,11.2,3.88-11.13-2.51-.88v-.96h6.6v1.03c-1.51.19-2.25.59-3.43,3.61l-4.44,12.6h-1.74Z"/>
        <path class="cls-5" d="M391.38,56.83s-1.03.66-2.58.66c-1.66,0-3.17-.92-3.13-3.21l.15-9.65h5.45s.05,0,.05,0l.08-.6h0l.37-3.03-.7-.13-.53,1.15-.3.25-4.34.17h0s-.05,0-.05,0v-4.39l-2.14.37-.92,4.16-3.02.29v1.44c1.66,0,3.02.15,3.02,1.73s-.15,6.56-.15,8.55c0,3.76,1.44,5.16,3.83,5.16,2.06,0,3.76-.85,5.31-2.1l-.41-.85Z"/>
        <path class="cls-5" d="M481.6,56.83s-1.03.66-2.58.66c-1.66,0-3.17-.92-3.13-3.21l.15-9.65h5.45s.01,0,.01,0l.07-.6h0l.37-3.03-.7-.13-.53,1.15-.3.25-4.33.17h0s0,0,0,0v-4.39l-2.14.37-.92,4.16-3.02.29v1.44c1.66,0,3.02.15,3.02,1.73s-.15,6.56-.15,8.55c0,3.76,1.44,5.16,3.83,5.16,2.06,0,3.76-.85,5.31-2.1l-.41-.85Z"/>
        <path class="cls-5" d="M377.66,42.09h0s-.64-.22-1.84-.22c-2.58,0-5.27,4.05-5.27,4.05,0-2.25.07-4.17.07-4.17h-.29l-5.27,1.95v.88c1.99,0,2.62,1.81,2.62,4.87v8.03l-2.43.92v.96h8.47v-.93s-2.39-.83-2.39-.83l-.71-.89v-7.89c0-2.43,1.92-3.8,3.98-3.8.42,0,.86.1,1.23.23l.58.85.71.06.55-4.09Z"/>
        <path class="cls-5" d="M512.45,42.09h0s-.64-.22-1.84-.22c-2.58,0-5.27,4.05-5.27,4.05,0-2.25.07-4.17.07-4.17h-.29l-5.27,1.95v.88c1.99,0,2.62,1.81,2.62,4.87v8.03l-2.43.92v.96h8.47v-.93s-2.38-.83-2.38-.83l-.71-.89v-7.89c0-2.43,1.92-3.8,3.98-3.8.42,0,.86.1,1.23.23l.58.85.71.06.55-4.09Z"/>
      </g>
      <rect class="cls-5" x="541.79" y="32.08" width=".55" height="34.3"/>
      <g class="cls-16">
        <path class="cls-5" d="M566.02,44.1c-.2.17-.76.7-.76,1.01s.32.73.84,1.42l6.63,8.93c2.7,3.68,4.23,2.71,4.23,3.58,0,.24-.03.45-.45.45-.76,0-1.67-.14-2.61-.14-.66,0-1.35.14-2.32.14-.66,0-1.01-.07-1.7-1.01l-6.91-9.48c-.45-.59-.66-.97-.87-.97-.28,0-.87.59-1.63,1.46-.52.59-.45.9-.45,1.7v4.55c0,3.2,3.4,2.08,3.4,3.34,0,.31-.14.41-.97.41-.94,0-1.87-.14-3.85-.14-1.67,0-3.47.14-4.55.14-.66,0-1.07-.03-1.07-.27,0-1.74,2.78.52,2.78-4.72v-15.1c0-4.2-3.64-2.43-3.64-3.96,0-.38.28-.52.7-.52.66,0,1.8.14,4.16.14,1.95,0,4.13-.14,4.83-.14.31,0,.73,0,.73.41,0,1.39-2.5-.48-2.5,3.33v7.95c0,.35-.04.84.17.8.21.03.42-.14.87-.59l4.58-4.48c.97-.97,4.34-3.78,4.34-5.35,0-1.07-2.11-.62-2.11-1.43,0-.62.34-.66.8-.66.35,0,2.74.14,3.78.14.87,0,1.77-.14,3.26-.14.28,0,.9-.04.9.59,0,.93-1.11-.1-4.48,2.95l-6.12,5.66Z"/>
        <path class="cls-5" d="M584.92,49.53c.59,0,.8.03.8-.94,0-1.31-.97-3.36-3.16-3.36s-2.85,2.05-2.85,3.64c0,.56.07.66.17.66h5.03ZM580.51,50.74c-.62,0-.76-.24-.76.86,0,2.99,2.12,5.7,5.14,5.7,2.04,0,3.75-1.84,4.31-1.84.14,0,.35.04.35.42,0,.87-2.92,3.61-6.49,3.61s-6.84-2.19-6.84-6.94c0-3.99,2.26-8.33,6.74-8.33,4.65,0,6.52,3.96,6.52,5.76,0,.76-.2.76-.42.76h-8.54Z"/>
        <path class="cls-5" d="M592.7,38.01c0-2.05-2.29-.94-2.29-1.94,0-.59.52-.45,2.74-1.22,2.67-.76,2.57-1.39,3.16-1.39.45,0,.07.97.07,2.92v19.9c0,2.46,2.56,1.98,2.56,2.74,0,.34-.14.45-.73.45-.69,0-2.85-.14-3.89-.14-.8,0-2.36.14-3.09.14-.28,0-.59,0-.59-.35,0-1.08,2.05.31,2.05-2.95v-18.16Z"/>
        <path class="cls-5" d="M602.2,38.01c0-2.05-2.29-.94-2.29-1.94,0-.59.52-.45,2.74-1.22,2.68-.76,2.57-1.39,3.16-1.38.45,0,.07.97.07,2.91v19.9c0,2.46,2.56,1.98,2.56,2.75,0,.35-.14.45-.73.45-.69,0-2.84-.14-3.89-.14-.79,0-2.36.14-3.09.14-.28,0-.59,0-.59-.35,0-1.08,2.04.31,2.05-2.95v-18.16Z"/>
        <path class="cls-5" d="M612.32,50.33c-.11,2.29,1.01,7.95,4.86,7.95,2.71,0,3.5-2.01,3.5-4.37,0-2.78-1-8.58-4.75-8.58-3.03,0-3.51,2.5-3.62,5M616.1,59.5c-4.2,0-7.46-2.92-7.46-7.19,0-4.55,3.23-8.09,7.88-8.09,4.34,0,7.67,2.89,7.67,7.26,0,4.72-3.3,8.02-8.09,8.02"/>
        <path class="cls-5" d="M631.76,45.23c-.62,0-2.71.28-2.71,4.07,0,1.74.73,4.17,2.85,4.17s2.84-2.01,2.84-3.89-.66-4.34-2.99-4.34M629.77,60.72c-.94,0-1.39.9-1.39,1.73,0,2.29,2.29,2.68,3.89,2.68,1.81,0,4.69-.38,4.69-2.74,0-1.6-1.21-1.67-7.18-1.67M625.57,63.11c0-2.08,2.26-2.71,2.6-2.71-.35-.31-1.49-1.08-1.49-3.2,0-1.42.62-2.46,1.84-3.33-1.87-1.18-2.84-2.08-2.84-4.41,0-3.33,2.78-5.24,6.22-5.24,2.39,0,3.75,1.21,4.89,1.21,2.05,0,1.98-2.18,2.5-2.18.31,0,.38.31.38.94,0,3.3-.98,3.37-1.53,3.71.04.59,0,.14.04,1.04.07,2.19-1.25,5.45-6.42,5.45-.52,0-1.07-.06-1.77-.06-1.04,0-1.46.69-1.46,1.52,0,1.35.21,1.53,5.28,1.53,4.86,0,5.87,1.46,5.87,3.58s-1.43,3.65-3.23,4.34c-2.05.8-3.16.87-5.35.87-1.39,0-5.51-.31-5.51-3.05"/>
        <path class="cls-5" d="M647.12,45.24c-.62,0-2.71.28-2.71,4.06,0,1.73.73,4.16,2.85,4.16,2.22,0,2.85-2.01,2.85-3.88,0-1.95-.66-4.34-2.98-4.34M645.14,60.72c-.94,0-1.39.9-1.39,1.74,0,2.29,2.29,2.68,3.89,2.68,1.8,0,4.69-.38,4.69-2.74,0-1.6-1.22-1.67-7.19-1.67M640.93,63.11c0-2.08,2.26-2.71,2.6-2.71-.35-.31-1.49-1.07-1.49-3.19,0-1.43.63-2.47,1.84-3.33-1.87-1.18-2.85-2.08-2.85-4.41,0-3.33,2.78-5.24,6.21-5.24,2.4,0,3.75,1.22,4.9,1.22,2.05,0,1.98-2.18,2.5-2.18.32,0,.38.31.38.93,0,3.3-.97,3.37-1.53,3.72.03.59,0,.14.03,1.04.07,2.19-1.25,5.45-6.42,5.45-.52,0-1.08-.07-1.77-.07-1.04,0-1.46.69-1.46,1.52,0,1.36.21,1.53,5.28,1.53,4.86,0,5.87,1.46,5.87,3.57,0,2.05-1.43,3.65-3.23,4.34-2.05.8-3.16.87-5.35.87-1.39,0-5.52-.31-5.52-3.06"/>
      </g>
      <line class="cls-2" x1="320.01" y1="90.11" x2="745.22" y2="90.11"/>
      <g class="cls-13">
        <path class="cls-19" d="M320.22,124.9v-.04c0-3.54,2.65-6.44,6.42-6.44,2.29,0,3.68.8,4.87,1.94l-1.4,1.62c-.99-.92-2.06-1.55-3.49-1.55-2.36,0-4.11,1.96-4.11,4.39v.04c0,2.44,1.72,4.41,4.11,4.41,1.53,0,2.51-.6,3.58-1.6l1.4,1.42c-1.3,1.35-2.72,2.2-5.05,2.2-3.63,0-6.33-2.83-6.33-6.4"/>
      </g>
      <polygon class="cls-19" points="334.61 118.64 343.84 118.64 343.84 120.6 336.8 120.6 336.8 123.84 343.04 123.84 343.04 125.79 336.8 125.79 336.8 129.14 343.93 129.14 343.93 131.09 334.61 131.09 334.61 118.64"/>
      <polygon class="cls-19" points="347.24 118.64 349.27 118.64 355.94 127.25 355.94 118.64 358.09 118.64 358.09 131.09 356.26 131.09 349.4 122.24 349.4 131.09 347.24 131.09 347.24 118.64"/>
      <polygon class="cls-19" points="365.07 120.67 361.12 120.67 361.12 118.64 371.22 118.64 371.22 120.67 367.27 120.67 367.27 131.09 365.07 131.09 365.07 120.67"/>
      <polygon class="cls-19" points="374.25 118.64 383.48 118.64 383.48 120.6 376.44 120.6 376.44 123.84 382.68 123.84 382.68 125.79 376.44 125.79 376.44 129.14 383.57 129.14 383.57 131.09 374.25 131.09 374.25 118.64"/>
      <g class="cls-12">
        <path class="cls-19" d="M392.27,124.82c1.57,0,2.56-.82,2.56-2.08v-.04c0-1.33-.96-2.06-2.58-2.06h-3.18v4.18h3.2ZM386.88,118.64h5.55c1.57,0,2.79.46,3.59,1.25.66.68,1.03,1.6,1.03,2.69v.04c0,2.04-1.23,3.27-2.95,3.77l3.36,4.71h-2.6l-3.06-4.34h-2.74v4.34h-2.19v-12.45Z"/>
      </g>
      <polygon class="cls-19" points="406.5 118.64 415.76 118.64 415.76 120.64 408.69 120.64 408.69 124.03 414.96 124.03 414.96 126.02 408.69 126.02 408.69 131.09 406.5 131.09 406.5 118.64"/>
      <g class="cls-15">
        <path class="cls-19" d="M428.95,124.9v-.04c0-2.42-1.76-4.43-4.23-4.43s-4.2,1.98-4.2,4.39v.04c0,2.42,1.76,4.41,4.23,4.41s4.2-1.96,4.2-4.37M418.22,124.9v-.04c0-3.5,2.7-6.44,6.53-6.44s6.49,2.9,6.49,6.4v.04c0,3.5-2.7,6.44-6.53,6.44s-6.49-2.9-6.49-6.4"/>
        <path class="cls-19" d="M439.99,124.82c1.57,0,2.56-.82,2.56-2.08v-.04c0-1.33-.96-2.06-2.58-2.06h-3.18v4.18h3.2ZM434.61,118.64h5.55c1.57,0,2.79.46,3.59,1.25.66.68,1.03,1.6,1.03,2.69v.04c0,2.04-1.23,3.27-2.95,3.77l3.36,4.71h-2.6l-3.06-4.34h-2.74v4.34h-2.19v-12.45Z"/>
        <path class="cls-4" d="M320.24,161.76l1.84-2.19c1.67,1.44,3.36,2.27,5.5,2.27,1.89,0,3.09-.9,3.09-2.19v-.05c0-1.25-.7-1.92-3.94-2.66-3.71-.9-5.8-1.99-5.8-5.21v-.05c0-2.99,2.49-5.06,5.95-5.06,2.54,0,4.56.77,6.33,2.19l-1.64,2.32c-1.57-1.17-3.14-1.79-4.73-1.79-1.79,0-2.84.92-2.84,2.06v.05c0,1.35.8,1.94,4.16,2.74,3.68.9,5.58,2.22,5.58,5.11v.05c0,3.26-2.56,5.21-6.23,5.21-2.66,0-5.18-.92-7.27-2.79"/>
        <path class="cls-4" d="M336.28,157.8v-.05c0-3.73,2.89-6.87,6.85-6.87,2.47,0,4.01.92,5.26,2.27l-1.89,2.02c-.92-.97-1.89-1.64-3.39-1.64-2.19,0-3.81,1.89-3.81,4.18v.05c0,2.34,1.62,4.21,3.94,4.21,1.42,0,2.47-.65,3.41-1.62l1.82,1.8c-1.29,1.44-2.81,2.46-5.38,2.46-3.91,0-6.8-3.06-6.8-6.8"/>
      </g>
      <path class="cls-4" d="M351.4,151.15h3.01v13.15h-3.01v-13.15ZM351.28,146.27h3.24v2.86h-3.24v-2.86Z"/>
      <g class="cls-14">
        <path class="cls-4" d="M367.36,156.8c-.2-1.94-1.34-3.46-3.34-3.46-1.84,0-3.14,1.42-3.41,3.46h6.75ZM357.63,157.77v-.05c0-3.76,2.66-6.85,6.42-6.85,4.18,0,6.3,3.29,6.3,7.07,0,.27-.03.55-.05.85h-9.66c.32,2.14,1.84,3.34,3.78,3.34,1.47,0,2.52-.55,3.56-1.57l1.77,1.57c-1.24,1.49-2.96,2.46-5.38,2.46-3.81,0-6.75-2.76-6.75-6.82"/>
        <path class="cls-4" d="M373.39,151.15h3.01v2.02c.85-1.22,2.07-2.29,4.11-2.29,2.96,0,4.68,1.99,4.68,5.03v8.39h-3.01v-7.47c0-2.04-1.02-3.21-2.82-3.21s-2.96,1.22-2.96,3.26v7.42h-3.01v-13.15Z"/>
        <path class="cls-4" d="M388.11,157.8v-.05c0-3.73,2.89-6.87,6.85-6.87,2.47,0,4.01.92,5.26,2.27l-1.89,2.02c-.92-.97-1.89-1.64-3.39-1.64-2.19,0-3.81,1.89-3.81,4.18v.05c0,2.34,1.62,4.21,3.94,4.21,1.42,0,2.47-.65,3.41-1.62l1.82,1.8c-1.3,1.44-2.81,2.46-5.38,2.46-3.91,0-6.8-3.06-6.8-6.8"/>
        <path class="cls-4" d="M411.69,156.8c-.2-1.94-1.34-3.46-3.34-3.46-1.84,0-3.14,1.42-3.41,3.46h6.75ZM401.96,157.77v-.05c0-3.76,2.66-6.85,6.42-6.85,4.18,0,6.3,3.29,6.3,7.07,0,.27-.03.55-.05.85h-9.66c.32,2.14,1.84,3.34,3.78,3.34,1.47,0,2.52-.55,3.56-1.57l1.77,1.57c-1.24,1.49-2.96,2.46-5.38,2.46-3.81,0-6.75-2.76-6.75-6.82"/>
        <path class="cls-4" d="M435.48,157.8v-.05c0-2.32-1.67-4.23-4.03-4.23s-3.96,1.89-3.96,4.18v.05c0,2.29,1.67,4.21,4.01,4.21s3.98-1.89,3.98-4.16M424.47,157.8v-.05c0-3.76,2.99-6.87,7.02-6.87s7,3.06,7,6.83v.05c0,3.74-2.99,6.85-7.05,6.85s-6.97-3.06-6.97-6.8"/>
        <path class="cls-4" d="M442.23,153.74h-1.67v-2.52h1.67v-.97c0-1.44.37-2.54,1.07-3.24.7-.7,1.67-1.04,2.97-1.04,1.05,0,1.77.15,2.44.35v2.54c-.6-.2-1.12-.32-1.77-.32-1.15,0-1.74.62-1.74,1.99v.72h3.49v2.49h-3.44v10.56h-3.01v-10.56Z"/>
        <path class="cls-4" d="M457.57,161.76l1.84-2.19c1.67,1.44,3.36,2.27,5.5,2.27,1.89,0,3.09-.9,3.09-2.19v-.05c0-1.25-.7-1.92-3.94-2.66-3.71-.9-5.8-1.99-5.8-5.21v-.05c0-2.99,2.49-5.06,5.95-5.06,2.54,0,4.56.77,6.33,2.19l-1.64,2.32c-1.57-1.17-3.14-1.79-4.73-1.79-1.79,0-2.84.92-2.84,2.06v.05c0,1.35.8,1.94,4.16,2.74,3.69.9,5.58,2.22,5.58,5.11v.05c0,3.26-2.57,5.21-6.23,5.21-2.67,0-5.18-.92-7.27-2.79"/>
        <path class="cls-4" d="M473.6,157.8v-.05c0-3.73,2.89-6.87,6.85-6.87,2.47,0,4.01.92,5.26,2.27l-1.89,2.02c-.92-.97-1.89-1.64-3.39-1.64-2.19,0-3.81,1.89-3.81,4.18v.05c0,2.34,1.62,4.21,3.94,4.21,1.42,0,2.47-.65,3.41-1.62l1.82,1.8c-1.29,1.44-2.81,2.46-5.38,2.46-3.91,0-6.8-3.06-6.8-6.8"/>
      </g>
      <path class="cls-4" d="M488.72,151.15h3.01v13.15h-3.01v-13.15ZM488.6,146.27h3.24v2.86h-3.24v-2.86Z"/>
      <g class="cls-7">
        <path class="cls-4" d="M504.69,156.8c-.2-1.94-1.35-3.46-3.34-3.46-1.84,0-3.14,1.42-3.41,3.46h6.75ZM494.95,157.77v-.05c0-3.76,2.66-6.85,6.43-6.85,4.18,0,6.3,3.29,6.3,7.07,0,.27-.03.55-.05.85h-9.66c.32,2.14,1.84,3.34,3.78,3.34,1.47,0,2.52-.55,3.56-1.57l1.77,1.57c-1.24,1.49-2.96,2.46-5.38,2.46-3.81,0-6.75-2.76-6.75-6.82"/>
        <path class="cls-4" d="M510.71,151.15h3.01v2.02c.85-1.22,2.07-2.29,4.11-2.29,2.96,0,4.68,1.99,4.68,5.03v8.39h-3.02v-7.47c0-2.04-1.02-3.21-2.81-3.21s-2.96,1.22-2.96,3.26v7.42h-3.01v-13.15Z"/>
        <path class="cls-4" d="M525.43,157.8v-.05c0-3.73,2.89-6.87,6.85-6.87,2.47,0,4.01.92,5.25,2.27l-1.89,2.02c-.92-.97-1.89-1.64-3.39-1.64-2.19,0-3.81,1.89-3.81,4.18v.05c0,2.34,1.62,4.21,3.94,4.21,1.42,0,2.47-.65,3.41-1.62l1.82,1.8c-1.29,1.44-2.81,2.46-5.38,2.46-3.91,0-6.8-3.06-6.8-6.8"/>
        <path class="cls-4" d="M549.02,156.8c-.2-1.94-1.35-3.46-3.34-3.46-1.84,0-3.14,1.42-3.41,3.46h6.75ZM539.28,157.77v-.05c0-3.76,2.66-6.85,6.43-6.85,4.18,0,6.3,3.29,6.3,7.07,0,.27-.02.55-.05.85h-9.66c.32,2.14,1.84,3.34,3.78,3.34,1.47,0,2.52-.55,3.56-1.57l1.77,1.57c-1.25,1.49-2.96,2.46-5.38,2.46-3.81,0-6.75-2.76-6.75-6.82"/>
        <path class="cls-4" d="M570.66,159.57v-.9c-.77-.3-1.79-.52-2.99-.52-1.94,0-3.09.82-3.09,2.19v.05c0,1.27,1.12,1.99,2.57,1.99,1.99,0,3.51-1.15,3.51-2.82M561.64,160.51v-.05c0-2.84,2.22-4.23,5.43-4.23,1.47,0,2.51.23,3.54.55v-.32c0-1.87-1.15-2.87-3.26-2.87-1.47,0-2.57.32-3.76.82l-.8-2.37c1.44-.65,2.86-1.07,4.96-1.07,1.97,0,3.44.52,4.36,1.47.97.95,1.42,2.34,1.42,4.06v7.8h-2.94v-1.64c-.9,1.07-2.27,1.92-4.28,1.92-2.46,0-4.66-1.42-4.66-4.06"/>
        <path class="cls-4" d="M577.13,151.15h3.01v2.02c.85-1.22,2.07-2.29,4.11-2.29,2.96,0,4.68,1.99,4.68,5.03v8.39h-3.01v-7.47c0-2.04-1.02-3.21-2.81-3.21s-2.96,1.22-2.96,3.26v7.42h-3.01v-13.15Z"/>
        <path class="cls-4" d="M602.54,157.75v-.05c0-2.54-1.8-4.21-3.81-4.21s-3.78,1.59-3.78,4.21v.05c0,2.54,1.74,4.21,3.78,4.21s3.81-1.69,3.81-4.21M591.9,157.75v-.05c0-4.36,2.96-6.82,6.1-6.82,2.17,0,3.54,1.07,4.48,2.32v-7.07h3.01v18.18h-3.01v-2.19c-.97,1.37-2.34,2.47-4.48,2.47-3.09,0-6.1-2.47-6.1-6.82"/>
      </g>
      <rect class="cls-4" x="617.28" y="146.87" width="3.06" height="17.43"/>
      <g class="cls-6">
        <path class="cls-4" d="M624.65,151.15h3.01v2.02c.85-1.22,2.07-2.29,4.11-2.29,2.96,0,4.68,1.99,4.68,5.03v8.39h-3.02v-7.47c0-2.04-1.02-3.21-2.81-3.21s-2.96,1.22-2.96,3.26v7.42h-3.01v-13.15Z"/>
        <path class="cls-4" d="M640.09,151.15h3.01v2.02c.85-1.22,2.07-2.29,4.11-2.29,2.96,0,4.68,1.99,4.68,5.03v8.39h-3.02v-7.47c0-2.04-1.02-3.21-2.81-3.21s-2.96,1.22-2.96,3.26v7.42h-3.01v-13.15Z"/>
        <path class="cls-4" d="M665.82,157.8v-.05c0-2.32-1.67-4.23-4.03-4.23s-3.96,1.89-3.96,4.18v.05c0,2.29,1.67,4.21,4.01,4.21s3.98-1.89,3.98-4.16M654.81,157.8v-.05c0-3.76,2.99-6.87,7.02-6.87s7,3.06,7,6.83v.05c0,3.74-2.99,6.85-7.05,6.85s-6.97-3.06-6.97-6.8"/>
      </g>
      <polygon class="cls-4" points="669.9 151.15 673.14 151.15 676.67 160.81 680.24 151.15 683.4 151.15 678.02 164.4 675.3 164.4 669.9 151.15"/>
      <g class="cls-9">
        <path class="cls-4" d="M693.49,159.57v-.9c-.77-.3-1.79-.52-2.99-.52-1.94,0-3.09.82-3.09,2.19v.05c0,1.27,1.12,1.99,2.57,1.99,1.99,0,3.51-1.15,3.51-2.82M684.47,160.51v-.05c0-2.84,2.22-4.23,5.43-4.23,1.47,0,2.51.23,3.54.55v-.32c0-1.87-1.15-2.87-3.26-2.87-1.47,0-2.57.32-3.76.82l-.8-2.37c1.44-.65,2.86-1.07,4.96-1.07,1.97,0,3.44.52,4.36,1.47.97.95,1.42,2.34,1.42,4.06v7.8h-2.94v-1.64c-.9,1.07-2.27,1.92-4.28,1.92-2.46,0-4.66-1.42-4.66-4.06"/>
        <path class="cls-4" d="M700.46,160.66v-6.92h-1.67v-2.59h1.67v-3.61h3.01v3.61h3.54v2.59h-3.54v6.45c0,1.17.6,1.64,1.62,1.64.67,0,1.27-.15,1.87-.45v2.46c-.75.42-1.57.67-2.71.67-2.22,0-3.78-.97-3.78-3.86"/>
      </g>
      <path class="cls-4" d="M710.25,151.15h3.01v13.15h-3.01v-13.15ZM710.12,146.27h3.24v2.86h-3.24v-2.86Z"/>
      <g class="cls-8">
        <path class="cls-4" d="M727.48,157.8v-.05c0-2.32-1.67-4.23-4.03-4.23s-3.96,1.89-3.96,4.18v.05c0,2.29,1.67,4.21,4.01,4.21s3.98-1.89,3.98-4.16M716.47,157.8v-.05c0-3.76,2.99-6.87,7.02-6.87s7,3.06,7,6.83v.05c0,3.74-2.99,6.85-7.05,6.85s-6.97-3.06-6.97-6.8"/>
        <path class="cls-4" d="M733.56,151.15h3.01v2.02c.85-1.22,2.07-2.29,4.11-2.29,2.96,0,4.68,1.99,4.68,5.03v8.39h-3.02v-7.47c0-2.04-1.02-3.21-2.81-3.21s-2.96,1.22-2.96,3.26v7.42h-3.01v-13.15Z"/>
      </g>
    </g>
  </g>
</svg>