<?xml version="1.0" encoding="UTF-8"?>
<svg id="Layer_2" data-name="Layer 2" xmlns="http://www.w3.org/2000/svg" viewBox="0 0 632.46 197.05">
  <defs>
    <style>
      .cls-1 {
        fill: #4e2a84;
      }

      .cls-2 {
        fill: #231f20;
      }

      .cls-3 {
        fill: none;
        stroke: #808184;
        stroke-miterlimit: 10;
        stroke-width: .88px;
      }

      .cls-4 {
        fill: #54565a;
      }
    </style>
  </defs>
  <g id="Layer_1-2" data-name="Layer 1">
    <g>
      <polygon class="cls-1" points="1.36 4.02 1.36 5.47 5 9.55 5 37.56 .09 38.93 .09 40.58 13.38 40.58 13.38 38.93 9.19 37.82 8.12 36.5 8.12 13.13 31.41 40.85 33.46 40.85 33.46 7.54 38.39 6.04 38.39 4.3 24.91 4.3 24.91 6.27 29.19 7.34 30.24 8.65 30.24 30.8 30.23 30.77 29.96 30.77 7.36 4.02 1.36 4.02"/>
      <path class="cls-1" d="M59.12,28.31c0-6.14-3.34-11.34-8.6-11.34-4.71,0-7.07,4.11-7.07,10.25s2.96,11.51,8.49,11.51c4.71,0,7.18-4.27,7.18-10.41M51.23,41.18c-6.58,0-12.88-4.22-12.88-13.2s6.69-13.42,12.88-13.42,12.99,4.06,12.99,12.99-6.9,13.64-12.99,13.64"/>
      <path class="cls-1" d="M130.35,25.68c0-6.14-3.45-7.34-7.45-7.34-3.4,0-5.59,2.52-5.59,2.52v15.78l1.05,1.32,3.54,1.24v1.39s-12.75,0-12.75,0v-1.42l3.62-1.37V11.37c0-4.78-1.21-6.08-3.84-6.08v-1.26l8.11-2.74h.55s-.27,5.64-.27,9.86v7.62s5.26-4.22,8.87-4.22c4.49,0,8.66,1.87,8.66,8.49v13.59s1.04,1.32,1.04,1.32l3.54,1.24v1.39s-12.75,0-12.75,0v-1.42l3.51-1.33.16-12.15Z"/>
      <path class="cls-1" d="M190.17,24.42c2.63-.11,3.56-.6,3.56-3.29,0-2.3-1.64-4.06-5.15-4.06s-6.47,3.23-6.47,7.62l8.06-.27ZM182.11,26.5c0,7.62,4.33,10.79,9.26,10.79,3.07,0,6.74-1.26,6.74-1.26l.55,1.04c-1.32,1.32-4.99,4.11-9.59,4.11-6.25,0-11.84-4.66-11.84-13.2,0-7.78,5.37-13.42,12.06-13.42,5.2,0,9.26,3.12,9.26,9.04,0,1.53-.27,2.9-.27,2.9h-16.16Z"/>
      <path class="cls-1" d="M204.57,40.2c-.38-.16-1.37-.71-1.42-1.86l-.33-5.2h2.41c.66,3.56,3.07,5.86,6.19,5.86s4.44-1.64,4.44-3.84-1.7-3.18-3.78-4.27l-2.79-1.42c-4-2.03-5.97-3.67-5.97-7.62,0-4.93,3.56-7.29,9.1-7.29,3.89,0,6.9,1.48,6.9,1.48l-.71,6.41h-2.25c0-4-1.64-5.48-4.99-5.48-2.25,0-4.33.88-4.33,3.07,0,1.76.71,2.52,5.04,4.77l2.47,1.26c4.49,2.3,5.75,4.22,5.75,7.95,0,4.49-4.49,7.18-8.88,7.18-2.79,0-5.26-.33-6.85-.99"/>
      <path class="cls-1" d="M255.71,24.42c2.63-.11,3.56-.6,3.56-3.29,0-2.3-1.64-4.06-5.15-4.06s-6.47,3.23-6.47,7.62l8.06-.27ZM247.65,26.5c0,7.62,4.33,10.79,9.26,10.79,3.07,0,6.74-1.26,6.74-1.26l.55,1.04c-1.32,1.32-4.99,4.11-9.59,4.11-6.25,0-11.84-4.66-11.84-13.2,0-7.78,5.37-13.42,12.06-13.42,5.2,0,9.26,3.12,9.26,9.04,0,1.53-.27,2.9-.27,2.9h-16.16Z"/>
      <path class="cls-1" d="M315.11,37.96l-1.05-1.32.05-13.87c0-6.41-4.16-8.22-8.44-8.22-3.62,0-8.71,4.22-8.71,4.22,0-2.3.11-4.38.11-4.38h-.44l-8,2.9v1.32c3.07,0,3.89,2.74,3.89,7.67v11.51l-3.62,1.37v1.42h12.6l.1-1.39-3.55-1.24-1.05-1.32v-15.73s1.92-2.58,5.37-2.58,7.23,1.26,7.23,7.34l-.17,12.16-3.5,1.32v1.42h12.6l.1-1.39-3.54-1.24Z"/>
      <path class="cls-1" d="M163.02,40.86l-5.87-16.28-6.73,16.28h-2.3l-6.61-20.11c-.93-2.52-1.46-4-3.22-4v-1.53h10.82v1.55l-3.29,1.08,4.93,16.66,4.33-10.41,1.01-2.64-1.49-4.24-1.88-.46v-1.53h10.46v1.64l-3.3.99,5.56,16.66,5.77-16.55-3.73-1.32v-1.42h9.81v1.53c-2.25.28-3.34.88-5.1,5.37l-6.6,18.74h-2.58Z"/>
      <path class="cls-1" d="M106.12,36.8s-1.53.99-3.84.99c-2.47,0-4.71-1.37-4.66-4.77l.22-14.36h8.11s.07,0,.07,0l.11-.89h0l.55-4.5-1.04-.19-.78,1.72-.45.38-6.45.25h0s-.07,0-.07,0v-6.52l-3.18.55-1.37,6.19-4.49.44v2.14c2.47,0,4.49.22,4.49,2.57s-.22,9.76-.22,12.71c0,5.59,2.14,7.67,5.7,7.67,3.07,0,5.59-1.26,7.89-3.12l-.6-1.26Z"/>
      <path class="cls-1" d="M240.27,36.8s-1.53.99-3.84.99c-2.47,0-4.71-1.37-4.66-4.77l.22-14.36h8.11s.01,0,.01,0l.11-.89h0l.55-4.5-1.04-.19-.78,1.72-.45.38-6.45.25h0s-.01,0-.01,0v-6.52l-3.18.55-1.37,6.19-4.49.44v2.14c2.47,0,4.49.22,4.49,2.57s-.22,9.76-.22,12.71c0,5.59,2.14,7.67,5.7,7.67,3.07,0,5.59-1.26,7.89-3.12l-.6-1.26Z"/>
      <path class="cls-1" d="M85.72,14.88h0s-.96-.33-2.74-.33c-3.84,0-7.84,6.03-7.84,6.03,0-3.34.11-6.19.11-6.19h-.44l-7.84,2.9v1.32c2.96,0,3.89,2.68,3.89,7.23v11.94l-3.62,1.37v1.42h12.6v-1.39s-3.55-1.24-3.55-1.24l-1.05-1.32v-11.73c0-3.62,2.85-5.64,5.92-5.64.63,0,1.27.16,1.82.34l.86,1.26,1.06.09.81-6.08Z"/>
      <path class="cls-1" d="M286.13,14.88h0s-.96-.33-2.74-.33c-3.84,0-7.84,6.03-7.84,6.03,0-3.34.11-6.19.11-6.19h-.44l-7.84,2.9v1.32c2.96,0,3.89,2.68,3.89,7.23v11.94l-3.62,1.37v1.42h12.6v-1.39s-3.55-1.24-3.55-1.24l-1.05-1.32v-11.73c0-3.62,2.85-5.64,5.92-5.64.63,0,1.27.16,1.82.34l.86,1.26,1.05.09.81-6.08Z"/>
      <rect class="cls-1" x="329.77" width=".82" height="51.01"/>
      <path class="cls-1" d="M365.78,17.87c-.31.26-1.14,1.03-1.14,1.5s.47,1.09,1.24,2.11l9.86,13.27c4.02,5.47,6.29,4.03,6.29,5.32,0,.36-.05.67-.67.67-1.14,0-2.48-.21-3.87-.21-.98,0-2.02.2-3.46.2-.98,0-1.5-.11-2.53-1.5l-10.27-14.1c-.67-.88-.98-1.44-1.29-1.44-.41,0-1.29.87-2.42,2.17-.77.88-.68,1.34-.68,2.53v6.76c0,4.75,5.06,3.1,5.06,4.96,0,.46-.21.61-1.44.61-1.4,0-2.79-.2-5.73-.21-2.48,0-5.16.21-6.77.2-.98,0-1.6-.05-1.6-.41,0-2.59,4.13.77,4.13-7.03V10.85c0-6.25-5.41-3.62-5.41-5.89,0-.56.42-.77,1.04-.77.98,0,2.68.21,6.19.21,2.89,0,6.14-.21,7.18-.21.46,0,1.09,0,1.09.62,0,2.07-3.72-.71-3.72,4.95v11.82c0,.52-.05,1.24.26,1.19.31.05.62-.21,1.29-.88l6.81-6.66c1.45-1.44,6.45-5.62,6.45-7.95,0-1.59-3.14-.93-3.14-2.12,0-.93.51-.98,1.19-.98.51,0,4.08.21,5.62.21,1.3,0,2.63-.21,4.85-.2.41,0,1.34-.05,1.34.87,0,1.39-1.65-.16-6.66,4.38l-9.09,8.41Z"/>
      <path class="cls-1" d="M387.33,27.75c-.93,0-1.13-.36-1.13,1.28,0,4.44,3.15,8.47,7.63,8.47,3.04,0,5.58-2.74,6.41-2.74.21,0,.51.06.51.62,0,1.29-4.34,5.37-9.65,5.37-5.11,0-10.17-3.25-10.17-10.32,0-5.94,3.36-12.39,10.02-12.39,6.91,0,9.7,5.89,9.7,8.57,0,1.14-.31,1.14-.62,1.14h-12.7ZM393.89,25.95c.88,0,1.18.05,1.18-1.4,0-1.95-1.44-5-4.7-5s-4.23,3.04-4.23,5.42c0,.83.1.98.26.98h7.49Z"/>
      <path class="cls-1" d="M405.45,8.83c0-3.05-3.41-1.39-3.41-2.89,0-.88.78-.67,4.08-1.81,3.97-1.13,3.82-2.06,4.7-2.06.67,0,.1,1.44.1,4.33v29.58c-.01,3.66,3.81,2.94,3.81,4.08,0,.51-.2.67-1.08.67-1.03,0-4.24-.21-5.78-.21-1.19,0-3.51.21-4.59.21-.42,0-.88,0-.88-.52,0-1.6,3.05.46,3.05-4.39V8.83Z"/>
      <path class="cls-1" d="M419.59,8.83c0-3.05-3.41-1.4-3.41-2.89,0-.88.78-.67,4.08-1.81,3.98-1.13,3.82-2.06,4.7-2.05.67,0,.1,1.44.1,4.33v29.58c0,3.66,3.81,2.94,3.81,4.08,0,.51-.2.67-1.09.67-1.03,0-4.23-.21-5.78-.21-1.18,0-3.51.2-4.59.2-.41,0-.88,0-.88-.52,0-1.6,3.04.46,3.05-4.39V8.83Z"/>
      <path class="cls-1" d="M440.26,40.77c-6.24,0-11.1-4.34-11.1-10.69,0-6.76,4.81-12.03,11.72-12.03,6.45,0,11.41,4.29,11.41,10.79,0,7.02-4.91,11.93-12.04,11.92ZM434.64,27.14c-.16,3.41,1.5,11.82,7.22,11.83,4.03,0,5.21-2.99,5.21-6.5,0-4.13-1.49-12.75-7.06-12.75-4.5,0-5.22,3.71-5.37,7.43Z"/>
      <path class="cls-1" d="M454.34,46.14c0-3.1,3.35-4.03,3.87-4.03-.51-.46-2.22-1.6-2.22-4.75,0-2.11.93-3.66,2.74-4.95-2.78-1.76-4.23-3.1-4.23-6.55,0-4.96,4.13-7.79,9.25-7.79,3.55,0,5.57,1.81,7.27,1.81,3.04,0,2.94-3.25,3.71-3.25.46,0,.57.46.57,1.39,0,4.9-1.45,5.01-2.27,5.52.05.88,0,.21.05,1.55.1,3.25-1.86,8.11-9.55,8.1-.78,0-1.6-.1-2.63-.1-1.55-.01-2.17,1.03-2.17,2.27,0,2.01.31,2.27,7.84,2.27,7.23,0,8.73,2.17,8.73,5.32,0,3.05-2.12,5.42-4.8,6.46-3.05,1.19-4.7,1.29-7.96,1.29-2.06,0-8.2-.47-8.2-4.54ZM460.59,42.58c-1.39,0-2.06,1.34-2.07,2.58,0,3.41,3.41,3.98,5.78,3.98,2.69,0,6.97-.57,6.97-4.07,0-2.38-1.81-2.49-10.68-2.49ZM463.53,19.56c-.93,0-4.03.42-4.03,6.04,0,2.58,1.08,6.2,4.24,6.2,3.3,0,4.23-2.99,4.23-5.79s-.98-6.45-4.44-6.45Z"/>
      <path class="cls-1" d="M477.18,46.15c0-3.1,3.35-4.02,3.87-4.02-.51-.46-2.22-1.6-2.22-4.74,0-2.13.93-3.67,2.74-4.96-2.79-1.76-4.23-3.1-4.23-6.56,0-4.95,4.13-7.79,9.24-7.79,3.57,0,5.58,1.81,7.28,1.81,3.04,0,2.95-3.25,3.72-3.25.47,0,.57.46.57,1.39,0,4.91-1.45,5.01-2.27,5.52.05.88,0,.21.05,1.55.1,3.26-1.86,8.1-9.55,8.1-.77,0-1.6-.1-2.63-.1-1.55,0-2.17,1.03-2.17,2.27,0,2.02.31,2.27,7.85,2.28,7.23,0,8.73,2.17,8.73,5.32,0,3.05-2.12,5.42-4.8,6.45-3.04,1.19-4.7,1.29-7.95,1.28-2.07,0-8.21-.46-8.21-4.55ZM483.43,42.59c-1.4,0-2.07,1.34-2.07,2.58,0,3.41,3.4,3.98,5.78,3.98,2.68,0,6.97-.56,6.97-4.08,0-2.38-1.81-2.48-10.69-2.48ZM486.38,19.57c-.93,0-4.03.41-4.03,6.04,0,2.58,1.08,6.19,4.23,6.19,3.31,0,4.23-3,4.24-5.77,0-2.89-.98-6.46-4.44-6.46Z"/>
    </g>
    <line class="cls-3" y1="86.29" x2="632.25" y2="86.29"/>
    <g>
      <path class="cls-4" d="M.31,138.03v-.05c0-5.26,3.94-9.57,9.55-9.57,3.41,0,5.47,1.19,7.25,2.88l-2.09,2.41c-1.48-1.38-3.07-2.3-5.18-2.3-3.52,0-6.11,2.91-6.11,6.53v.05c0,3.62,2.57,6.56,6.11,6.56,2.27,0,3.73-.9,5.32-2.38l2.09,2.12c-1.93,2.01-4.05,3.28-7.51,3.28-5.39,0-9.41-4.2-9.41-9.52Z"/>
      <path class="cls-4" d="M21.71,128.72h13.72v2.91h-10.47v4.81h9.28v2.91h-9.28v4.97h10.6v2.91h-13.86v-18.51Z"/>
      <path class="cls-4" d="M40.49,128.72h3.01l9.92,12.8v-12.8h3.2v18.51h-2.72l-10.21-13.17v13.17h-3.2v-18.51Z"/>
      <path class="cls-4" d="M66.99,131.73h-5.87v-3.01h15.02v3.01h-5.87v15.5h-3.28v-15.5Z"/>
      <path class="cls-4" d="M80.64,128.72h13.72v2.91h-10.47v4.81h9.28v2.91h-9.28v4.97h10.6v2.91h-13.86v-18.51Z"/>
      <path class="cls-4" d="M99.42,128.72h8.25c2.33,0,4.15.69,5.34,1.85.98,1,1.53,2.38,1.53,3.99v.05c0,3.04-1.82,4.87-4.39,5.61l5,7.01h-3.86l-4.55-6.45h-4.07v6.45h-3.25v-18.51ZM107.43,137.9c2.33,0,3.81-1.22,3.81-3.09v-.05c0-1.98-1.43-3.07-3.83-3.07h-4.73v6.21h4.76Z"/>
      <path class="cls-4" d="M128.6,128.72h13.78v2.96h-10.52v5.05h9.33v2.96h-9.33v7.54h-3.25v-18.51Z"/>
      <path class="cls-4" d="M146.03,138.03v-.05c0-5.21,4.02-9.57,9.71-9.57s9.65,4.31,9.65,9.52v.05c0,5.21-4.02,9.57-9.71,9.57s-9.65-4.31-9.65-9.52ZM161.97,138.03v-.05c0-3.6-2.62-6.58-6.29-6.58s-6.24,2.94-6.24,6.53v.05c0,3.6,2.62,6.56,6.29,6.56s6.24-2.91,6.24-6.5Z"/>
      <path class="cls-4" d="M170.39,128.72h8.25c2.33,0,4.15.69,5.34,1.85.98,1,1.53,2.38,1.53,3.99v.05c0,3.04-1.82,4.87-4.39,5.61l5,7.01h-3.86l-4.55-6.45h-4.07v6.45h-3.25v-18.51ZM178.4,137.9c2.33,0,3.81-1.22,3.81-3.09v-.05c0-1.98-1.43-3.07-3.83-3.07h-4.73v6.21h4.76Z"/>
      <path class="cls-2" d="M.34,192.83l2.74-3.26c2.48,2.15,5,3.37,8.18,3.37,2.81,0,4.59-1.33,4.59-3.26v-.07c0-1.85-1.04-2.85-5.85-3.96-5.52-1.33-8.63-2.96-8.63-7.74v-.07c0-4.44,3.7-7.52,8.85-7.52,3.78,0,6.78,1.15,9.41,3.26l-2.44,3.44c-2.33-1.74-4.67-2.67-7.04-2.67-2.67,0-4.22,1.37-4.22,3.07v.07c0,2,1.19,2.89,6.18,4.07,5.48,1.33,8.3,3.3,8.3,7.59v.07c0,4.85-3.81,7.74-9.26,7.74-3.96,0-7.7-1.37-10.81-4.15Z"/>
      <path class="cls-2" d="M24.19,186.94v-.07c0-5.56,4.3-10.22,10.18-10.22,3.67,0,5.96,1.37,7.81,3.37l-2.81,3c-1.37-1.44-2.81-2.44-5.04-2.44-3.26,0-5.67,2.81-5.67,6.22v.07c0,3.48,2.41,6.26,5.85,6.26,2.11,0,3.67-.96,5.07-2.41l2.7,2.67c-1.93,2.15-4.18,3.67-8,3.67-5.81,0-10.11-4.55-10.11-10.11Z"/>
      <path class="cls-2" d="M46.48,169.79h4.81v4.26h-4.81v-4.26ZM46.67,177.05h4.48v19.55h-4.48v-19.55Z"/>
      <path class="cls-2" d="M55.93,186.9v-.07c0-5.59,3.96-10.18,9.55-10.18,6.22,0,9.37,4.89,9.37,10.52,0,.41-.04.81-.07,1.26h-14.37c.48,3.19,2.74,4.96,5.63,4.96,2.19,0,3.74-.81,5.3-2.33l2.63,2.33c-1.85,2.22-4.41,3.67-8,3.67-5.67,0-10.04-4.11-10.04-10.15ZM70.41,185.46c-.3-2.89-2-5.15-4.96-5.15-2.74,0-4.67,2.11-5.07,5.15h10.04Z"/>
      <path class="cls-2" d="M79.37,177.05h4.48v3c1.26-1.81,3.07-3.41,6.11-3.41,4.41,0,6.96,2.96,6.96,7.48v12.48h-4.48v-11.11c0-3.04-1.52-4.78-4.18-4.78s-4.41,1.81-4.41,4.85v11.04h-4.48v-19.55Z"/>
      <path class="cls-2" d="M101.25,186.94v-.07c0-5.56,4.3-10.22,10.18-10.22,3.67,0,5.96,1.37,7.81,3.37l-2.81,3c-1.37-1.44-2.81-2.44-5.04-2.44-3.26,0-5.67,2.81-5.67,6.22v.07c0,3.48,2.41,6.26,5.85,6.26,2.11,0,3.67-.96,5.07-2.41l2.7,2.67c-1.93,2.15-4.18,3.67-8,3.67-5.81,0-10.11-4.55-10.11-10.11Z"/>
      <path class="cls-2" d="M121.84,186.9v-.07c0-5.59,3.96-10.18,9.55-10.18,6.22,0,9.37,4.89,9.37,10.52,0,.41-.04.81-.07,1.26h-14.37c.48,3.19,2.74,4.96,5.63,4.96,2.19,0,3.74-.81,5.3-2.33l2.63,2.33c-1.85,2.22-4.41,3.67-8,3.67-5.67,0-10.04-4.11-10.04-10.15ZM136.32,185.46c-.3-2.89-2-5.15-4.96-5.15-2.74,0-4.67,2.11-5.07,5.15h10.04Z"/>
      <path class="cls-2" d="M155.32,186.94v-.07c0-5.59,4.44-10.22,10.44-10.22s10.41,4.55,10.41,10.15v.07c0,5.55-4.44,10.18-10.48,10.18s-10.37-4.55-10.37-10.11ZM171.68,186.94v-.07c0-3.44-2.48-6.3-6-6.3s-5.89,2.81-5.89,6.22v.07c0,3.41,2.48,6.26,5.96,6.26s5.93-2.81,5.93-6.18Z"/>
      <path class="cls-2" d="M181.72,180.9h-2.48v-3.74h2.48v-1.44c0-2.15.56-3.78,1.59-4.81,1.04-1.04,2.48-1.55,4.41-1.55,1.56,0,2.63.22,3.63.52v3.78c-.89-.3-1.67-.48-2.63-.48-1.7,0-2.59.93-2.59,2.96v1.07h5.18v3.7h-5.11v15.7h-4.48v-15.7Z"/>
      <path class="cls-2" d="M204.53,192.83l2.74-3.26c2.48,2.15,5,3.37,8.18,3.37,2.81,0,4.59-1.33,4.59-3.26v-.07c0-1.85-1.04-2.85-5.85-3.96-5.52-1.33-8.63-2.96-8.63-7.74v-.07c0-4.44,3.7-7.52,8.85-7.52,3.78,0,6.78,1.15,9.41,3.26l-2.44,3.44c-2.33-1.74-4.67-2.67-7.04-2.67-2.67,0-4.22,1.37-4.22,3.07v.07c0,2,1.18,2.89,6.18,4.07,5.48,1.33,8.29,3.3,8.29,7.59v.07c0,4.85-3.81,7.74-9.26,7.74-3.96,0-7.7-1.37-10.81-4.15Z"/>
      <path class="cls-2" d="M228.38,186.94v-.07c0-5.56,4.3-10.22,10.18-10.22,3.67,0,5.96,1.37,7.81,3.37l-2.81,3c-1.37-1.44-2.81-2.44-5.04-2.44-3.26,0-5.67,2.81-5.67,6.22v.07c0,3.48,2.41,6.26,5.85,6.26,2.11,0,3.67-.96,5.07-2.41l2.7,2.67c-1.93,2.15-4.18,3.67-8,3.67-5.81,0-10.11-4.55-10.11-10.11Z"/>
      <path class="cls-2" d="M250.67,169.79h4.81v4.26h-4.81v-4.26ZM250.85,177.05h4.48v19.55h-4.48v-19.55Z"/>
      <path class="cls-2" d="M260.11,186.9v-.07c0-5.59,3.96-10.18,9.55-10.18,6.22,0,9.37,4.89,9.37,10.52,0,.41-.04.81-.07,1.26h-14.37c.48,3.19,2.74,4.96,5.63,4.96,2.18,0,3.74-.81,5.3-2.33l2.63,2.33c-1.85,2.22-4.41,3.67-8,3.67-5.67,0-10.04-4.11-10.04-10.15ZM274.59,185.46c-.3-2.89-2-5.15-4.96-5.15-2.74,0-4.67,2.11-5.07,5.15h10.04Z"/>
      <path class="cls-2" d="M283.55,177.05h4.48v3c1.26-1.81,3.07-3.41,6.11-3.41,4.41,0,6.96,2.96,6.96,7.48v12.48h-4.48v-11.11c0-3.04-1.52-4.78-4.18-4.78s-4.41,1.81-4.41,4.85v11.04h-4.48v-19.55Z"/>
      <path class="cls-2" d="M305.44,186.94v-.07c0-5.56,4.3-10.22,10.18-10.22,3.67,0,5.96,1.37,7.81,3.37l-2.81,3c-1.37-1.44-2.81-2.44-5.04-2.44-3.26,0-5.67,2.81-5.67,6.22v.07c0,3.48,2.41,6.26,5.85,6.26,2.11,0,3.67-.96,5.07-2.41l2.7,2.67c-1.93,2.15-4.18,3.67-8,3.67-5.81,0-10.11-4.55-10.11-10.11Z"/>
      <path class="cls-2" d="M326.03,186.9v-.07c0-5.59,3.96-10.18,9.55-10.18,6.22,0,9.37,4.89,9.37,10.52,0,.41-.04.81-.07,1.26h-14.37c.48,3.19,2.74,4.96,5.63,4.96,2.18,0,3.74-.81,5.3-2.33l2.63,2.33c-1.85,2.22-4.41,3.67-8,3.67-5.67,0-10.04-4.11-10.04-10.15ZM340.51,185.46c-.3-2.89-2-5.15-4.96-5.15-2.74,0-4.67,2.11-5.07,5.15h10.04Z"/>
      <path class="cls-2" d="M359.28,190.98v-.07c0-4.22,3.3-6.3,8.07-6.3,2.18,0,3.74.33,5.26.82v-.48c0-2.78-1.7-4.26-4.85-4.26-2.18,0-3.81.48-5.59,1.22l-1.19-3.52c2.15-.96,4.26-1.59,7.37-1.59,2.92,0,5.11.78,6.48,2.18,1.44,1.41,2.11,3.48,2.11,6.04v11.59h-4.37v-2.44c-1.33,1.59-3.37,2.85-6.37,2.85-3.67,0-6.92-2.11-6.92-6.04ZM372.68,189.57v-1.33c-1.15-.44-2.67-.78-4.44-.78-2.89,0-4.59,1.22-4.59,3.26v.07c0,1.89,1.67,2.96,3.81,2.96,2.96,0,5.22-1.7,5.22-4.18Z"/>
      <path class="cls-2" d="M382.31,177.05h4.48v3c1.26-1.81,3.07-3.41,6.11-3.41,4.41,0,6.96,2.96,6.96,7.48v12.48h-4.48v-11.11c0-3.04-1.52-4.78-4.18-4.78s-4.41,1.81-4.41,4.85v11.04h-4.48v-19.55Z"/>
      <path class="cls-2" d="M404.27,186.87v-.07c0-6.48,4.41-10.15,9.07-10.15,3.22,0,5.26,1.59,6.67,3.44v-10.52h4.48v27.03h-4.48v-3.26c-1.44,2.04-3.48,3.67-6.67,3.67-4.59,0-9.07-3.67-9.07-10.15ZM420.08,186.87v-.07c0-3.78-2.67-6.26-5.67-6.26s-5.63,2.37-5.63,6.26v.07c0,3.78,2.59,6.26,5.63,6.26s5.67-2.52,5.67-6.26Z"/>
      <path class="cls-2" d="M442,170.68h4.56v25.92h-4.56v-25.92Z"/>
      <path class="cls-2" d="M452.96,177.05h4.48v3c1.26-1.81,3.07-3.41,6.11-3.41,4.41,0,6.96,2.96,6.96,7.48v12.48h-4.48v-11.11c0-3.04-1.52-4.78-4.18-4.78s-4.41,1.81-4.41,4.85v11.04h-4.48v-19.55Z"/>
      <path class="cls-2" d="M475.92,177.05h4.48v3c1.26-1.81,3.07-3.41,6.11-3.41,4.41,0,6.96,2.96,6.96,7.48v12.48h-4.48v-11.11c0-3.04-1.52-4.78-4.18-4.78s-4.41,1.81-4.41,4.85v11.04h-4.48v-19.55Z"/>
      <path class="cls-2" d="M497.81,186.94v-.07c0-5.59,4.44-10.22,10.44-10.22s10.41,4.55,10.41,10.15v.07c0,5.55-4.44,10.18-10.48,10.18s-10.37-4.55-10.37-10.11ZM514.18,186.94v-.07c0-3.44-2.48-6.3-6-6.3s-5.89,2.81-5.89,6.22v.07c0,3.41,2.48,6.26,5.96,6.26s5.93-2.81,5.93-6.18Z"/>
      <path class="cls-2" d="M520.25,177.05h4.81l5.26,14.37,5.3-14.37h4.7l-8,19.7h-4.04l-8.04-19.7Z"/>
      <path class="cls-2" d="M541.91,190.98v-.07c0-4.22,3.3-6.3,8.07-6.3,2.18,0,3.74.33,5.26.82v-.48c0-2.78-1.7-4.26-4.85-4.26-2.18,0-3.81.48-5.59,1.22l-1.19-3.52c2.15-.96,4.26-1.59,7.37-1.59,2.92,0,5.11.78,6.48,2.18,1.44,1.41,2.11,3.48,2.11,6.04v11.59h-4.37v-2.44c-1.33,1.59-3.37,2.85-6.37,2.85-3.67,0-6.92-2.11-6.92-6.04ZM555.32,189.57v-1.33c-1.15-.44-2.67-.78-4.44-.78-2.89,0-4.59,1.22-4.59,3.26v.07c0,1.89,1.67,2.96,3.81,2.96,2.96,0,5.22-1.7,5.22-4.18Z"/>
      <path class="cls-2" d="M565.69,191.2v-10.29h-2.48v-3.85h2.48v-5.37h4.48v5.37h5.26v3.85h-5.26v9.59c0,1.74.89,2.44,2.41,2.44,1,0,1.89-.22,2.78-.67v3.67c-1.11.63-2.33,1-4.04,1-3.3,0-5.63-1.44-5.63-5.74Z"/>
      <path class="cls-2" d="M580.06,169.79h4.81v4.26h-4.81v-4.26ZM580.24,177.05h4.48v19.55h-4.48v-19.55Z"/>
      <path class="cls-2" d="M589.5,186.94v-.07c0-5.59,4.44-10.22,10.44-10.22s10.41,4.55,10.41,10.15v.07c0,5.55-4.44,10.18-10.48,10.18s-10.37-4.55-10.37-10.11ZM605.87,186.94v-.07c0-3.44-2.48-6.3-6-6.3s-5.89,2.81-5.89,6.22v.07c0,3.41,2.48,6.26,5.96,6.26s5.93-2.81,5.93-6.18Z"/>
      <path class="cls-2" d="M614.9,177.05h4.48v3c1.26-1.81,3.07-3.41,6.11-3.41,4.41,0,6.96,2.96,6.96,7.48v12.48h-4.48v-11.11c0-3.04-1.52-4.78-4.18-4.78s-4.41,1.81-4.41,4.85v11.04h-4.48v-19.55Z"/>
    </g>
  </g>
</svg>