<?xml version="1.0" encoding="UTF-8"?>
<svg id="Layer_1" xmlns="http://www.w3.org/2000/svg" version="1.1" viewBox="0 0 687.6 261.1">
  <!-- Generator: Adobe Illustrator 29.0.0, SVG Export Plug-In . SVG Version: 2.1.0 Build 186)  -->
  <defs>
    <style>
      .st0 {
        fill: #482580;
      }

      .st1 {
        fill: #231f20;
      }

      .st2 {
        fill: none;
        stroke: #808285;
        stroke-miterlimit: 10;
        stroke-width: 1.2px;
      }

      .st3 {
        fill: #54565a;
      }
    </style>
  </defs>
  <line class="st2" x1=".7" y1="114.6" x2="687.6" y2="114.6"/>
  <g>
    <polygon class="st0" points="1.7 5.5 1.7 7.5 6.7 13.1 6.7 51.4 0 53.3 0 55.6 18.2 55.6 18.2 53.3 12.5 51.8 11 50 11 18 42.9 56 45.7 56 45.7 10.3 52.5 8.3 52.5 5.9 34 5.9 34 8.6 39.9 10 41.3 11.9 41.3 42.2 41.3 42.1 40.9 42.1 10 5.5 1.7 5.5"/>
    <path class="st0" d="M80.8,38.8c0-8.4-4.6-15.5-11.8-15.5s-9.7,5.6-9.7,14,4.1,15.8,11.6,15.8,9.8-5.8,9.8-14.3M70,56.4c-9,0-17.6-5.8-17.6-18.1s9.2-18.4,17.6-18.4,17.8,5.6,17.8,17.8-9.5,18.7-17.8,18.7"/>
    <path class="st0" d="M178.4,35.2c0-8.4-4.7-10.1-10.2-10.1s-7.6,3.4-7.6,3.4v21.6l1.4,1.8,4.9,1.7v1.9h-17.5v-1.9l4.9-1.9V15.6c0-6.5-1.7-8.3-5.3-8.3v-1.7l11.1-3.8h.8s-.4,7.7-.4,13.5v10.4s7.2-5.8,12.1-5.8,11.9,2.6,11.9,11.6v18.6l1.4,1.8,4.9,1.7v1.9h-17.5v-1.9l4.8-1.8.2-16.6h0Z"/>
    <path class="st0" d="M260.3,33.4c3.6-.2,4.9-.8,4.9-4.5s-2.2-5.6-7-5.6-8.9,4.4-8.9,10.4l11-.4h0ZM249.3,36.3c0,10.4,5.9,14.8,12.7,14.8s9.2-1.7,9.2-1.7l.8,1.4c-1.8,1.8-6.8,5.6-13.1,5.6s-16.2-6.4-16.2-18.1,7.4-18.4,16.5-18.4,12.7,4.3,12.7,12.4-.4,4-.4,4c0,0-22.1,0-22.1,0Z"/>
    <path class="st0" d="M280,55c-.5-.2-1.9-1-2-2.6l-.5-7.1h3.3c.9,4.9,4.2,8,8.5,8s6.1-2.2,6.1-5.2-2.3-4.3-5.2-5.8l-3.8-1.9c-5.5-2.8-8.2-5-8.2-10.4s4.9-10,12.5-10,9.5,2,9.5,2l-1,8.8h-3.1c0-5.5-2.2-7.5-6.8-7.5s-5.9,1.2-5.9,4.2,1,3.4,6.9,6.5l3.4,1.7c6.1,3.2,7.9,5.8,7.9,10.9s-6.1,9.8-12.1,9.8-7.2-.4-9.4-1.3"/>
    <path class="st0" d="M350,33.4c3.6-.2,4.9-.8,4.9-4.5s-2.2-5.6-7-5.6-8.9,4.4-8.9,10.4l11-.4h0ZM339,36.3c0,10.4,5.9,14.8,12.7,14.8s9.2-1.7,9.2-1.7l.8,1.4c-1.8,1.8-6.8,5.6-13.1,5.6s-16.2-6.4-16.2-18.1,7.4-18.4,16.5-18.4,12.7,4.3,12.7,12.4-.4,4-.4,4c0,0-22.1,0-22.1,0Z"/>
    <path class="st0" d="M431.4,52l-1.4-1.8v-19c0-8.8-5.6-11.2-11.5-11.2s-11.9,5.8-11.9,5.8c0-3.2.1-6,.1-6h-.6l-11,4v1.8c4.2,0,5.3,3.8,5.3,10.5v15.8l-5,1.9v1.9h17.2v-1.9c.1,0-4.7-1.7-4.7-1.7l-1.4-1.8v-21.5s2.6-3.5,7.4-3.5,9.9,1.7,9.9,10.1l-.2,16.7-4.8,1.8v1.9h17.2v-1.9c.1,0-4.7-1.7-4.7-1.7h0Z"/>
    <path class="st0" d="M223.1,56l-8-22.3-9.2,22.3h-3.1l-9.1-27.5c-1.3-3.4-2-5.5-4.4-5.5v-2.1h14.8v2.1l-4.5,1.5,6.8,22.8,5.9-14.3,1.4-3.6-2-5.8-2.6-.6v-2.1h14.3v2.2l-4.5,1.3,7.6,22.8,7.9-22.7-5.1-1.8v-1.9h13.4v2.1c-3.1.4-4.6,1.2-7,7.3l-9,25.7h-3.5,0Z"/>
    <path class="st0" d="M145.2,50.4s-2.1,1.3-5.2,1.3-6.4-1.9-6.4-6.5l.3-19.7h11.2v-1.2h.1l.8-6.2-1.4-.3-1.1,2.3-.6.5-8.8.3h0v-8.9l-4.4.8-1.9,8.5-6.1.6v2.9c3.4,0,6.1.3,6.1,3.5s-.3,13.4-.3,17.4c0,7.7,2.9,10.5,7.8,10.5s7.6-1.7,10.8-4.3l-.8-1.7h0Z"/>
    <path class="st0" d="M328.9,50.4s-2.1,1.3-5.2,1.3-6.5-1.9-6.4-6.5l.3-19.7h11.1v-1.2h.1l.8-6.2-1.4-.3-1.1,2.3-.6.5-8.8.3h0v-8.9l-4.4.8-1.9,8.5-6.1.6v2.9c3.4,0,6.1.3,6.1,3.5s-.3,13.4-.3,17.4c0,7.7,2.9,10.5,7.8,10.5s7.6-1.7,10.8-4.3l-.8-1.7h0Z"/>
    <path class="st0" d="M117.3,20.4h0s-1.3-.4-3.8-.4c-5.2,0-10.7,8.2-10.7,8.2,0-4.6.1-8.5.1-8.5h-.6l-10.7,4v1.8c4.1,0,5.3,3.7,5.3,9.9v16.3l-4.9,1.9v1.9h17.2v-1.9l-4.9-1.7-1.4-1.8v-16.1c0-4.9,3.9-7.7,8.1-7.7s1.7.2,2.5.5l1.2,1.7h1.4c0,.1,1.1-8.2,1.1-8.2Z"/>
    <path class="st0" d="M391.7,20.4h0s-1.3-.4-3.8-.4c-5.2,0-10.7,8.2-10.7,8.2,0-4.6.1-8.5.1-8.5h-.6l-10.7,4v1.8c4,0,5.3,3.7,5.3,9.9v16.3l-5,1.9v1.9h17.2v-1.9l-4.9-1.7-1.4-1.8v-16.1c0-4.9,3.9-7.7,8.1-7.7s1.7.2,2.5.5l1.2,1.7h1.4c0,.1,1.1-8.2,1.1-8.2h0Z"/>
    <rect class="st0" x="451.4" width="1.1" height="69.9"/>
    <path class="st0" d="M500.8,24.5c-.4.3-1.6,1.4-1.6,2.1s.6,1.5,1.7,2.9l13.5,18.2c5.5,7.5,8.6,5.5,8.6,7.3s0,.9-.9.9c-1.6,0-3.4-.3-5.3-.3s-2.8.3-4.7.3-2-.2-3.5-2.1l-14.1-19.3c-.9-1.2-1.3-2-1.8-2s-1.8,1.2-3.3,3c-1.1,1.2-.9,1.8-.9,3.5v9.3c0,6.5,6.9,4.2,6.9,6.8s-.3.8-2,.8-3.8-.3-7.8-.3c-3.4,0-7.1.3-9.3.3-1.3,0-2.2,0-2.2-.6,0-3.5,5.7,1.1,5.7-9.6V14.8c0-8.6-7.4-4.9-7.4-8.1s.6-1.1,1.4-1.1c1.3,0,3.7.3,8.5.3s8.4-.3,9.8-.3,1.5,0,1.5.8c0,2.8-5.1-1-5.1,6.8v16.2c0,.7,0,1.7.3,1.6.4,0,.8-.3,1.8-1.2l9.3-9.1c2-2,8.8-7.7,8.8-10.9s-4.3-1.3-4.3-2.9.7-1.3,1.6-1.3,5.6.3,7.7.3,3.6-.3,6.6-.3,1.8,0,1.8,1.2c0,1.9-2.3-.2-9.1,6l-12.5,11.5h0Z"/>
    <path class="st0" d="M530.3,38c-1.3,0-1.5-.5-1.5,1.8,0,6.1,4.3,11.6,10.5,11.6s7.6-3.8,8.8-3.8.7,0,.7.8c0,1.8-5.9,7.3-13.2,7.3s-13.9-4.4-13.9-14.1c0-8.1,4.6-17,13.7-17,9.5,0,13.3,8.1,13.3,11.7s-.4,1.6-.8,1.6h-17.4,0ZM539.2,35.5c1.2,0,1.6,0,1.6-1.9s-2-6.8-6.4-6.8-5.8,4.2-5.8,7.4.1,1.3.3,1.3h10.3Z"/>
    <path class="st0" d="M555.1,12.1c0-4.2-4.7-1.9-4.7-4s1.1-.9,5.6-2.5c5.4-1.5,5.2-2.8,6.4-2.8s.1,2,.1,5.9v40.5c0,5,5.2,4,5.2,5.6s-.3.9-1.5.9-5.8-.3-7.9-.3-4.8.3-6.3.3-1.2,0-1.2-.7c0-2.2,4.2.6,4.2-6V12.1h0Z"/>
    <path class="st0" d="M574.4,12.1c0-4.2-4.7-1.9-4.7-4s1.1-.9,5.6-2.5c5.5-1.5,5.2-2.8,6.4-2.8.9,0,.1,2,.1,5.9v40.5c0,5,5.2,4,5.2,5.6s-.3.9-1.5.9-5.8-.3-7.9-.3-4.8.3-6.3.3-1.2,0-1.2-.7c0-2.2,4.2.6,4.2-6V12.1h0Z"/>
    <path class="st0" d="M602.7,55.8c-8.5,0-15.2-5.9-15.2-14.6,0-9.3,6.6-16.5,16-16.5s15.6,5.9,15.6,14.8-6.7,16.3-16.5,16.3ZM595,37.2c-.2,4.7,2,16.2,9.9,16.2,5.5,0,7.1-4.1,7.1-8.9,0-5.7-2-17.5-9.7-17.5s-7.2,5.1-7.4,10.2h0Z"/>
    <path class="st0" d="M622,63.2c0-4.2,4.6-5.5,5.3-5.5-.7-.6-3-2.2-3-6.5,0-2.9,1.3-5,3.8-6.8-3.8-2.4-5.8-4.2-5.8-9,0-6.8,5.7-10.7,12.7-10.7s7.6,2.5,10,2.5c4.2,0,4-4.4,5.1-4.4s.8.6.8,1.9c0,6.7-2,6.9-3.1,7.6,0,1.2,0,.3,0,2.1.1,4.5-2.5,11.1-13.1,11.1-1.1,0-2.2-.1-3.6-.1-2.1,0-3,1.4-3,3.1,0,2.8.4,3.1,10.7,3.1,9.9,0,12,3,12,7.3s-2.9,7.4-6.6,8.8c-4.2,1.6-6.4,1.8-10.9,1.8-2.8,0-11.2-.6-11.2-6.2h0ZM630.6,58.3c-1.9,0-2.8,1.8-2.8,3.5,0,4.7,4.7,5.4,7.9,5.4s9.5-.8,9.5-5.6-2.5-3.4-14.6-3.4h0ZM634.6,26.8c-1.3,0-5.5.6-5.5,8.3,0,3.5,1.5,8.5,5.8,8.5s5.8-4.1,5.8-7.9-1.3-8.8-6.1-8.8h0Z"/>
    <path class="st0" d="M653.3,63.2c0-4.2,4.6-5.5,5.3-5.5-.7-.6-3-2.2-3-6.5s1.3-5,3.8-6.8c-3.8-2.4-5.8-4.2-5.8-9,0-6.8,5.7-10.7,12.7-10.7s7.6,2.5,10,2.5c4.2,0,4-4.4,5.1-4.4.6,0,.8.6.8,1.9,0,6.7-2,6.9-3.1,7.6,0,1.2,0,.3,0,2.1.1,4.5-2.5,11.1-13.1,11.1s-2.2-.1-3.6-.1c-2.1,0-3,1.4-3,3.1,0,2.8.4,3.1,10.7,3.1,9.9,0,12,3,12,7.3s-2.9,7.4-6.6,8.8c-4.2,1.6-6.4,1.8-10.9,1.8-2.8,0-11.2-.6-11.2-6.2h0ZM661.9,58.3c-1.9,0-2.8,1.8-2.8,3.5,0,4.7,4.7,5.4,7.9,5.4s9.5-.8,9.5-5.6c0-3.3-2.5-3.4-14.6-3.4h0ZM665.9,26.8c-1.3,0-5.5.6-5.5,8.3,0,3.5,1.5,8.5,5.8,8.5s5.8-4.1,5.8-7.9-1.3-8.8-6.1-8.8h0Z"/>
  </g>
  <g>
    <path class="st1" d="M-.4,169.7h7.2l16.6,21.8v-21.8h7.7v35.5h-6.6l-17.2-22.6v22.6H-.4v-35.5h0Z"/>
    <path class="st1" d="M37.5,191.7h0c0-7.9,6.3-14.2,14.8-14.2s14.7,6.2,14.7,14h0c0,7.9-6.3,14.2-14.8,14.2s-14.7-6.2-14.7-14h0ZM59.3,191.7h0c0-4.1-2.9-7.6-7.2-7.6s-7,3.4-7,7.4h0c0,4.1,2.9,7.6,7.2,7.6s7-3.4,7-7.4Z"/>
    <path class="st1" d="M72.5,178h7.7v5.5c1.6-3.8,4.1-6.2,8.7-6v8.1h-.4c-5.1,0-8.3,3.1-8.3,9.6v10h-7.7v-27.2h0Z"/>
    <path class="st1" d="M95,197.5v-12.9h-3.2v-6.6h3.2v-6.9h7.7v6.9h6.4v6.6h-6.4v11.6c0,1.8.8,2.6,2.5,2.6s2.7-.4,3.8-1v6.2c-1.6,1-3.5,1.6-6.1,1.6-4.7,0-7.9-1.9-7.9-8.2h0Z"/>
    <path class="st1" d="M114.7,168.2h7.7v13.7c1.8-2.3,4.1-4.4,8-4.4,5.8,0,9.2,3.9,9.2,10.1v17.6h-7.7v-15.1c0-3.6-1.7-5.5-4.7-5.5s-4.8,1.9-4.8,5.5v15.1h-7.7v-37h0Z"/>
    <path class="st1" d="M143.3,178h7.8l4.4,16.5,5.1-16.6h6.6l5.2,16.6,4.5-16.5h7.6l-8.5,27.4h-6.9l-5.2-16.7-5.3,16.7h-6.9l-8.4-27.4h0Z"/>
    <path class="st1" d="M186.6,191.7h0c0-7.9,5.5-14.2,13.4-14.2s13.2,7,13.2,14.8,0,1.3-.1,2h-18.9c.8,3.5,3.2,5.3,6.6,5.3s4.5-.8,6.6-2.8l4.4,3.9c-2.5,3.1-6.2,5.1-11.1,5.1-8.2,0-14.2-5.7-14.2-14h0ZM205.7,189.4c-.5-3.4-2.5-5.8-5.7-5.8s-5.3,2.3-5.9,5.8h11.6Z"/>
    <path class="st1" d="M216.8,201.6l3.3-5.1c2.9,2.1,6,3.2,8.6,3.2s3.2-.8,3.2-2h0c0-1.8-2.6-2.3-5.6-3.2-3.8-1.1-8.1-2.9-8.1-8.2h0c0-5.6,4.5-8.7,9.9-8.7s7.2,1.2,10.1,3.1l-2.9,5.3c-2.7-1.6-5.4-2.5-7.4-2.5s-2.8.8-2.8,1.9h0c0,1.6,2.6,2.3,5.5,3.3,3.8,1.3,8.2,3.1,8.2,8.1h0c0,6.1-4.5,8.9-10.4,8.9s-8.1-1.3-11.7-4.1h0Z"/>
    <path class="st1" d="M245.2,197.5v-12.9h-3.2v-6.6h3.2v-6.9h7.7v6.9h6.4v6.6h-6.4v11.6c0,1.8.8,2.6,2.5,2.6s2.7-.4,3.8-1v6.2c-1.6,1-3.5,1.6-6.1,1.6-4.7,0-7.9-1.9-7.9-8.2h0Z"/>
    <path class="st1" d="M262.9,191.7h0c0-7.9,5.5-14.2,13.4-14.2s13.2,7,13.2,14.8,0,1.3-.1,2h-18.9c.8,3.5,3.2,5.3,6.6,5.3s4.5-.8,6.6-2.8l4.4,3.9c-2.5,3.1-6.2,5.1-11.1,5.1-8.2,0-14.2-5.7-14.2-14h0ZM282,189.4c-.5-3.4-2.5-5.8-5.7-5.8s-5.3,2.3-5.9,5.8h11.6Z"/>
    <path class="st1" d="M295.2,178h7.7v5.5c1.6-3.8,4.1-6.2,8.7-6v8.1h-.4c-5.1,0-8.3,3.1-8.3,9.6v10h-7.7v-27.2h0Z"/>
    <path class="st1" d="M316.4,178h7.7v3.9c1.8-2.3,4-4.4,8-4.4,5.8,0,9.2,3.9,9.2,10.1v17.6h-7.7v-15.1c0-3.6-1.7-5.5-4.7-5.5s-4.8,1.9-4.8,5.5v15.1h-7.7v-27.2h0Z"/>
    <path class="st1" d="M364.4,169.7h7.8v35.5h-7.8v-35.5h0Z"/>
    <path class="st1" d="M380.2,178h7.7v3.9c1.8-2.3,4-4.4,8-4.4,5.8,0,9.2,3.9,9.2,10.1v17.6h-7.7v-15.1c0-3.6-1.7-5.5-4.7-5.5s-4.8,1.9-4.8,5.5v15.1h-7.7v-27.2h0Z"/>
    <path class="st1" d="M411.8,178h7.7v3.9c1.8-2.3,4-4.4,8-4.4,5.8,0,9.2,3.9,9.2,10.1v17.6h-7.7v-15.1c0-3.6-1.7-5.5-4.7-5.5s-4.8,1.9-4.8,5.5v15.1h-7.7v-27.2h0Z"/>
    <path class="st1" d="M442,191.7h0c0-7.9,6.3-14.2,14.8-14.2s14.6,6.2,14.6,14h0c0,7.9-6.3,14.2-14.8,14.2s-14.6-6.2-14.6-14h0ZM463.8,191.7h0c0-4.1-2.9-7.6-7.1-7.6s-7,3.4-7,7.4h0c0,4.1,2.9,7.6,7.1,7.6s7-3.4,7-7.4h0Z"/>
    <path class="st1" d="M473.1,178h8.2l6.1,18.2,6.1-18.2h8l-10.7,27.4h-7l-10.7-27.4h0Z"/>
    <path class="st1" d="M503,197.4h0c0-6,4.5-8.8,11-8.8s4.7.5,6.6,1.1v-.5c0-3.2-2-5-5.8-5s-5,.6-7.5,1.5l-1.9-5.9c3-1.3,5.9-2.2,10.5-2.2s7.2,1.1,9.2,3c2,2,2.9,5,2.9,8.7v15.8h-7.5v-2.9c-1.9,2.1-4.5,3.5-8.2,3.5s-9.3-2.9-9.3-8.3h0ZM520.7,195.6v-1.4c-1.3-.6-3-1-4.9-1-3.3,0-5.3,1.3-5.3,3.7h0c0,2.2,1.7,3.4,4.2,3.4,3.6,0,6-2,6-4.8h0Z"/>
    <path class="st1" d="M535.6,197.5v-12.9h-3.2v-6.6h3.2v-6.9h7.7v6.9h6.4v6.6h-6.4v11.6c0,1.8.8,2.6,2.5,2.6s2.7-.4,3.8-1v6.2c-1.6,1-3.5,1.6-6.1,1.6-4.7,0-7.9-1.9-7.9-8.2h0Z"/>
    <path class="st1" d="M555.6,168.2h8.1v6.8h-8.1v-6.8ZM555.8,178h7.7v27.2h-7.7v-27.2h0Z"/>
    <path class="st1" d="M569.4,191.7h0c0-7.9,6.3-14.2,14.8-14.2s14.6,6.2,14.6,14h0c0,7.9-6.3,14.2-14.8,14.2s-14.7-6.2-14.7-14h0ZM591.2,191.7h0c0-4.1-2.9-7.6-7.1-7.6s-7,3.4-7,7.4h0c0,4.1,2.9,7.6,7.2,7.6s7-3.4,7-7.4h0Z"/>
    <path class="st1" d="M604.4,178h7.7v3.9c1.8-2.3,4-4.4,8-4.4,5.8,0,9.2,3.9,9.2,10.1v17.6h-7.7v-15.1c0-3.6-1.7-5.5-4.7-5.5s-4.8,1.9-4.8,5.5v15.1h-7.7v-27.2h0Z"/>
    <path class="st3" d="M-1.1,235.3H3.3v25.3H-1.1v-25.3Z"/>
    <path class="st3" d="M11.5,235.3h4.1l13.6,17.5v-17.5h4.4v25.3h-3.7l-14-18v18h-4.4s0-25.3,0-25.3Z"/>
    <path class="st3" d="M39.9,257l2.7-3.2c2.4,2.1,4.9,3.3,8,3.3s4.5-1.3,4.5-3.2h0c0-1.9-1-2.9-5.7-3.9-5.4-1.3-8.4-2.9-8.4-7.6h0c0-4.4,3.6-7.4,8.7-7.4s6.6,1.1,9.2,3.2l-2.4,3.4c-2.3-1.7-4.6-2.6-6.9-2.6s-4.1,1.3-4.1,3h0c0,2,1.2,2.9,6,4.1,5.4,1.3,8.1,3.2,8.1,7.4h0c0,4.8-3.7,7.6-9.1,7.6s-7.5-1.3-10.6-4h0Z"/>
    <path class="st3" d="M71.9,239.5h-8v-4.1h20.6v4.1h-8v21.2h-4.5v-21.2h0Z"/>
    <path class="st3" d="M90.8,235.3h4.4v25.3h-4.4v-25.3Z"/>
    <path class="st3" d="M109.7,239.5h-8v-4.1h20.6v4.1h-8v21.2h-4.5v-21.2h0Z"/>
    <path class="st3" d="M128,249.9v-14.6h4.4v14.4c0,4.7,2.4,7.2,6.4,7.2s6.4-2.4,6.4-7v-14.6h4.4v14.4c0,7.6-4.3,11.4-10.9,11.4s-10.8-3.8-10.8-11.1h0Z"/>
    <path class="st3" d="M163.5,239.5h-8v-4.1h20.6v4.1h-8v21.2h-4.5v-21.2h0Z"/>
    <path class="st3" d="M182.1,235.3h18.8v4h-14.3v6.6h12.7v4h-12.7v6.8h14.5v4h-19v-25.3h0Z"/>
  </g>
</svg>