<?xml version="1.0" encoding="UTF-8"?>
<svg id="Layer_1" data-name="Layer 1" xmlns="http://www.w3.org/2000/svg" viewBox="0 0 792 379.91">
  <defs>
    <style>
      .cls-1 {
        fill: #482580;
      }

      .cls-2 {
        fill: #231f20;
      }

      .cls-3 {
        fill: none;
        stroke: #808285;
        stroke-miterlimit: 10;
        stroke-width: 1.21px;
      }

      .cls-4 {
        fill: #54565a;
      }
    </style>
  </defs>
  <line class="cls-3" x1="55.84" y1="173.68" x2="742.78" y2="173.68"/>
  <g>
    <polygon class="cls-1" points="56.9 64.63 56.9 66.62 61.88 72.2 61.88 110.56 55.16 112.44 55.16 114.69 73.36 114.69 73.36 112.43 67.62 110.91 66.16 109.11 66.16 77.1 98.05 115.07 100.86 115.07 100.86 69.45 107.61 67.4 107.61 65.02 89.14 65.02 89.14 67.7 95.01 69.17 96.44 70.97 96.44 101.3 96.43 101.26 96.06 101.26 65.11 64.63 56.9 64.63"/>
    <path class="cls-1" d="M135.99,97.89c0-8.4-4.58-15.53-11.78-15.53-6.45,0-9.68,5.63-9.68,14.03s4.05,15.76,11.63,15.76c6.45,0,9.83-5.85,9.83-14.26M125.19,115.52c-9,0-17.63-5.77-17.63-18.08s9.16-18.38,17.63-18.38,17.78,5.55,17.78,17.78-9.46,18.68-17.78,18.68"/>
    <path class="cls-1" d="M233.53,94.29c0-8.4-4.73-10.05-10.2-10.05-4.65,0-7.65,3.45-7.65,3.45v21.61l1.44,1.81,4.85,1.69v1.9s-17.46,0-17.46,0v-1.95l4.95-1.88v-36.17c0-6.54-1.66-8.33-5.26-8.33v-1.72l11.1-3.75h.75s-.37,7.73-.37,13.51v10.43s7.2-5.78,12.15-5.78c6.15,0,11.86,2.55,11.86,11.63v18.61s1.43,1.81,1.43,1.81l4.85,1.69v1.9s-17.46,0-17.46,0v-1.95l4.8-1.82.23-16.63Z"/>
    <path class="cls-1" d="M315.44,92.56c3.6-.15,4.88-.83,4.88-4.5,0-3.15-2.25-5.55-7.05-5.55s-8.85,4.43-8.85,10.43l11.03-.38ZM304.41,95.41c0,10.43,5.93,14.78,12.68,14.78,4.2,0,9.23-1.73,9.23-1.73l.75,1.42c-1.8,1.8-6.83,5.63-13.13,5.63-8.55,0-16.21-6.38-16.21-18.08,0-10.65,7.35-18.38,16.51-18.38,7.13,0,12.68,4.28,12.68,12.38,0,2.1-.38,3.98-.38,3.98h-22.13Z"/>
    <path class="cls-1" d="M335.16,114.17c-.53-.22-1.88-.98-1.95-2.55l-.45-7.13h3.3c.9,4.88,4.2,8.03,8.48,8.03s6.08-2.25,6.08-5.25-2.32-4.35-5.18-5.85l-3.83-1.95c-5.48-2.78-8.18-5.03-8.18-10.43,0-6.75,4.88-9.98,12.46-9.98,5.33,0,9.46,2.02,9.46,2.02l-.98,8.78h-3.08c0-5.48-2.25-7.51-6.83-7.51-3.08,0-5.93,1.2-5.93,4.2,0,2.4.97,3.45,6.9,6.53l3.38,1.72c6.15,3.15,7.88,5.78,7.88,10.88,0,6.15-6.15,9.83-12.15,9.83-3.83,0-7.2-.45-9.38-1.35"/>
    <path class="cls-1" d="M405.19,92.56c3.6-.15,4.88-.83,4.88-4.5,0-3.15-2.25-5.55-7.05-5.55s-8.85,4.43-8.85,10.43l11.03-.38ZM394.16,95.41c0,10.43,5.93,14.78,12.68,14.78,4.2,0,9.23-1.73,9.23-1.73l.75,1.42c-1.8,1.8-6.83,5.63-13.13,5.63-8.55,0-16.21-6.38-16.21-18.08,0-10.65,7.35-18.38,16.51-18.38,7.13,0,12.68,4.28,12.68,12.38,0,2.1-.38,3.98-.38,3.98h-22.13Z"/>
    <path class="cls-1" d="M486.52,111.1l-1.44-1.81.07-18.99c0-8.78-5.7-11.25-11.55-11.25-4.95,0-11.93,5.78-11.93,5.78,0-3.15.15-6,.15-6h-.6l-10.96,3.98v1.8c4.21,0,5.33,3.75,5.33,10.51v15.76l-4.95,1.88v1.95h17.25l.14-1.9-4.85-1.69-1.43-1.81v-21.54s2.63-3.53,7.36-3.53,9.9,1.73,9.9,10.05l-.23,16.65-4.79,1.81v1.95h17.25l.14-1.9-4.85-1.69Z"/>
    <path class="cls-1" d="M278.27,115.07l-8.04-22.29-9.21,22.29h-3.15l-9.05-27.53c-1.27-3.45-2-5.48-4.41-5.48v-2.1h14.81v2.12l-4.51,1.48,6.75,22.81,5.93-14.26,1.38-3.62-2.04-5.8-2.57-.63v-2.1h14.32v2.25l-4.51,1.35,7.61,22.81,7.91-22.66-5.1-1.8v-1.95h13.43v2.1c-3.08.38-4.58,1.2-6.98,7.35l-9.04,25.66h-3.53Z"/>
    <path class="cls-1" d="M200.35,109.52s-2.1,1.35-5.25,1.35c-3.38,0-6.45-1.88-6.38-6.53l.3-19.66h11.11s.1,0,.1,0l.15-1.22h0l.75-6.16-1.43-.26-1.07,2.35-.61.52-8.83.34h0s-.09,0-.09,0v-8.93l-4.35.75-1.88,8.48-6.15.6v2.93c3.38,0,6.15.3,6.15,3.52s-.3,13.36-.3,17.41c0,7.65,2.93,10.51,7.8,10.51,4.2,0,7.65-1.73,10.8-4.28l-.83-1.73Z"/>
    <path class="cls-1" d="M384.04,109.52s-2.1,1.35-5.25,1.35c-3.38,0-6.45-1.88-6.38-6.53l.3-19.66h11.11s.02,0,.02,0l.15-1.22h0l.75-6.16-1.43-.26-1.07,2.35-.61.52-8.83.34h0s-.01,0-.01,0v-8.93l-4.35.75-1.88,8.48-6.15.6v2.93c3.38,0,6.15.3,6.15,3.52s-.3,13.36-.3,17.41c0,7.65,2.93,10.51,7.8,10.51,4.2,0,7.65-1.73,10.8-4.28l-.83-1.73Z"/>
    <path class="cls-1" d="M172.42,79.5h0s-1.31-.45-3.75-.45c-5.25,0-10.73,8.25-10.73,8.25,0-4.58.15-8.48.15-8.48h-.6l-10.73,3.98v1.8c4.05,0,5.33,3.68,5.33,9.91v16.35l-4.95,1.88v1.95h17.25v-1.9s-4.86-1.69-4.86-1.69l-1.44-1.81v-16.06c0-4.95,3.9-7.73,8.1-7.73.86,0,1.74.21,2.5.47l1.17,1.73,1.45.12,1.11-8.32Z"/>
    <path class="cls-1" d="M446.85,79.5h0s-1.31-.45-3.75-.45c-5.25,0-10.73,8.25-10.73,8.25,0-4.58.15-8.48.15-8.48h-.6l-10.73,3.98v1.8c4.05,0,5.33,3.68,5.33,9.91v16.35l-4.95,1.88v1.95h17.25v-1.9s-4.86-1.69-4.86-1.69l-1.44-1.81v-16.06c0-4.95,3.9-7.73,8.1-7.73.86,0,1.74.21,2.5.47l1.18,1.73,1.44.12,1.11-8.32Z"/>
    <rect class="cls-1" x="506.59" y="59.12" width="1.13" height="69.85"/>
    <path class="cls-1" d="M555.92,83.6c-.42.35-1.56,1.42-1.56,2.05s.64,1.49,1.7,2.89l13.5,18.17c5.51,7.49,8.61,5.52,8.61,7.29,0,.49-.07.92-.91.92-1.56,0-3.4-.29-5.31-.29-1.34,0-2.76.28-4.73.28-1.35,0-2.05-.15-3.46-2.05l-14.06-19.31c-.92-1.21-1.34-1.98-1.77-1.98-.56,0-1.77,1.2-3.32,2.96-1.06,1.2-.92,1.84-.92,3.47v9.26c0,6.51,6.93,4.24,6.93,6.79,0,.63-.29.84-1.98.84-1.91,0-3.82-.28-7.84-.29-3.4,0-7.07.29-9.27.28-1.34,0-2.19-.06-2.19-.56,0-3.54,5.66,1.05,5.66-9.62v-30.74c.01-8.55-7.41-4.95-7.41-8.07,0-.77.57-1.06,1.42-1.06,1.34,0,3.67.29,8.48.29,3.96,0,8.41-.28,9.83-.28.64,0,1.49,0,1.49.85,0,2.83-5.1-.98-5.1,6.78v16.19c0,.71-.07,1.7.35,1.63.42.07.84-.28,1.77-1.2l9.33-9.12c1.98-1.98,8.84-7.7,8.84-10.89,0-2.18-4.3-1.27-4.3-2.9,0-1.27.7-1.34,1.63-1.34.7,0,5.58.29,7.7.29,1.78,0,3.61-.28,6.64-.28.57,0,1.84-.07,1.84,1.2,0,1.9-2.26-.21-9.12,6l-12.45,11.52Z"/>
    <path class="cls-1" d="M585.42,97.12c-1.27,0-1.55-.5-1.55,1.76,0,6.08,4.31,11.6,10.45,11.6,4.16,0,7.63-3.75,8.77-3.75.28,0,.7.08.7.85,0,1.77-5.94,7.35-13.22,7.35-7,0-13.93-4.45-13.92-14.14,0-8.13,4.6-16.97,13.72-16.96,9.47,0,13.28,8.06,13.28,11.73,0,1.55-.42,1.55-.85,1.55h-17.39ZM594.4,94.65c1.2,0,1.62.06,1.62-1.92,0-2.68-1.97-6.85-6.43-6.85s-5.8,4.17-5.8,7.42c0,1.13.14,1.34.35,1.34h10.25Z"/>
    <path class="cls-1" d="M610.24,71.21c0-4.17-4.67-1.91-4.67-3.96,0-1.21,1.06-.92,5.59-2.47,5.44-1.55,5.24-2.82,6.43-2.82.92,0,.14,1.97.14,5.94l-.02,40.51c0,5.02,5.23,4.02,5.23,5.59,0,.7-.28.91-1.48.91-1.41,0-5.8-.29-7.92-.29-1.63,0-4.81.29-6.29.29-.57,0-1.21,0-1.21-.71,0-2.19,4.18.64,4.18-6.01v-36.97Z"/>
    <path class="cls-1" d="M629.59,71.22c0-4.17-4.67-1.91-4.67-3.96,0-1.21,1.07-.92,5.58-2.48,5.45-1.55,5.23-2.82,6.44-2.81.92,0,.14,1.97.14,5.92v40.51c-.01,5.02,5.21,4.03,5.21,5.59,0,.7-.28.91-1.49.91-1.41,0-5.79-.28-7.92-.28-1.62,0-4.8.28-6.29.28-.57,0-1.2,0-1.2-.71,0-2.19,4.16.63,4.17-6.01v-36.97Z"/>
    <path class="cls-1" d="M657.9,114.95c-8.55-.01-15.2-5.95-15.19-14.64,0-9.26,6.58-16.47,16.05-16.47,8.84,0,15.62,5.88,15.62,14.78,0,9.61-6.72,16.33-16.48,16.33ZM650.2,96.29c-.22,4.67,2.05,16.19,9.89,16.2,5.52,0,7.14-4.1,7.14-8.9.01-5.66-2.04-17.46-9.67-17.46-6.16,0-7.15,5.08-7.36,10.17Z"/>
    <path class="cls-1" d="M677.18,122.31c0-4.24,4.59-5.52,5.3-5.52-.7-.63-3.04-2.19-3.03-6.51,0-2.89,1.27-5.02,3.75-6.78-3.81-2.4-5.79-4.24-5.79-8.98,0-6.79,5.66-10.67,12.66-10.67,4.87,0,7.63,2.47,9.96,2.47,4.17,0,4.03-4.45,5.08-4.45.63,0,.78.63.78,1.91,0,6.71-1.99,6.86-3.11,7.56.07,1.2,0,.28.07,2.12.14,4.46-2.55,11.1-13.08,11.09-1.07,0-2.19-.13-3.6-.13-2.12-.01-2.97,1.41-2.97,3.1,0,2.75.42,3.1,10.74,3.11,9.9,0,11.95,2.98,11.95,7.28,0,4.17-2.91,7.43-6.57,8.84-4.18,1.63-6.44,1.77-10.9,1.76-2.82,0-11.23-.64-11.23-6.22ZM685.73,117.44c-1.91,0-2.82,1.83-2.83,3.53,0,4.67,4.66,5.44,7.92,5.44,3.68,0,9.54-.77,9.54-5.57,0-3.26-2.47-3.4-14.63-3.4ZM689.77,85.9c-1.27,0-5.51.57-5.52,8.27,0,3.53,1.48,8.49,5.8,8.49,4.52,0,5.79-4.1,5.79-7.92s-1.34-8.84-6.08-8.84Z"/>
    <path class="cls-1" d="M708.46,122.31c0-4.24,4.59-5.51,5.3-5.51-.7-.63-3.03-2.19-3.03-6.5,0-2.91,1.28-5.03,3.75-6.79-3.82-2.4-5.79-4.25-5.79-8.98,0-6.78,5.66-10.67,12.65-10.67,4.89,0,7.63,2.48,9.97,2.48,4.17,0,4.03-4.45,5.09-4.44.64,0,.78.64.78,1.9,0,6.72-1.98,6.86-3.11,7.56.07,1.21,0,.28.07,2.13.14,4.46-2.55,11.09-13.08,11.09-1.05,0-2.19-.14-3.61-.14-2.12,0-2.98,1.41-2.98,3.1,0,2.76.43,3.11,10.74,3.12,9.9,0,11.95,2.97,11.95,7.28,0,4.18-2.9,7.42-6.58,8.84-4.17,1.62-6.43,1.77-10.88,1.76-2.83,0-11.24-.63-11.24-6.22ZM717.01,117.44c-1.92,0-2.83,1.84-2.83,3.53,0,4.66,4.66,5.45,7.91,5.45,3.67,0,9.54-.77,9.55-5.58,0-3.26-2.47-3.39-14.63-3.4ZM721.05,85.92c-1.28,0-5.51.57-5.52,8.27,0,3.53,1.49,8.48,5.79,8.48,4.53,0,5.8-4.1,5.8-7.91,0-3.96-1.35-8.84-6.08-8.84Z"/>
  </g>
  <g>
    <path class="cls-2" d="M54.78,228.8h7.2l16.62,21.84v-21.84h7.7v35.47h-6.64l-17.18-22.55v22.55h-7.7v-35.47Z"/>
    <path class="cls-2" d="M92.69,250.84v-.1c0-7.8,6.28-14.14,14.75-14.14s14.65,6.23,14.65,14.04v.1c0,7.8-6.28,14.14-14.75,14.14s-14.65-6.23-14.65-14.04ZM114.48,250.84v-.1c0-4-2.89-7.5-7.15-7.5s-7.04,3.4-7.04,7.4v.1c0,4,2.89,7.5,7.15,7.5s7.04-3.4,7.04-7.4Z"/>
    <path class="cls-2" d="M127.66,237.11h7.7v5.47c1.57-3.75,4.1-6.18,8.67-5.98v8.06h-.41c-5.12,0-8.26,3.09-8.26,9.58v10.03h-7.7v-27.16Z"/>
    <path class="cls-2" d="M150.11,256.57v-12.87h-3.24v-6.59h3.24v-6.94h7.7v6.94h6.39v6.59h-6.39v11.6c0,1.77.76,2.64,2.48,2.64,1.42,0,2.69-.36,3.8-.96v6.18c-1.62.96-3.5,1.57-6.08,1.57-4.71,0-7.91-1.88-7.91-8.16Z"/>
    <path class="cls-2" d="M169.87,227.28h7.7v13.68c1.77-2.28,4.05-4.36,7.96-4.36,5.83,0,9.22,3.85,9.22,10.08v17.58h-7.7v-15.15c0-3.65-1.72-5.52-4.66-5.52s-4.81,1.88-4.81,5.52v15.15h-7.7v-36.99Z"/>
    <path class="cls-2" d="M198.46,237.11h7.8l4.36,16.47,5.12-16.57h6.64l5.17,16.62,4.46-16.52h7.65l-8.46,27.36h-6.94l-5.22-16.67-5.32,16.67h-6.89l-8.36-27.36Z"/>
    <path class="cls-2" d="M241.73,250.84v-.1c0-7.75,5.52-14.14,13.43-14.14,9.07,0,13.23,7.04,13.23,14.75,0,.61-.05,1.32-.1,2.03h-18.9c.76,3.5,3.19,5.32,6.64,5.32,2.58,0,4.46-.81,6.59-2.79l4.41,3.9c-2.53,3.14-6.18,5.07-11.1,5.07-8.16,0-14.19-5.73-14.19-14.04ZM260.89,248.56c-.46-3.45-2.48-5.78-5.73-5.78s-5.27,2.28-5.88,5.78h11.6Z"/>
    <path class="cls-2" d="M271.99,260.67l3.29-5.07c2.94,2.13,6.03,3.24,8.56,3.24,2.23,0,3.24-.81,3.24-2.03v-.1c0-1.67-2.63-2.23-5.62-3.14-3.8-1.12-8.11-2.89-8.11-8.16v-.1c0-5.52,4.46-8.61,9.93-8.61,3.45,0,7.2,1.17,10.13,3.14l-2.94,5.32c-2.69-1.57-5.37-2.53-7.35-2.53-1.88,0-2.84.81-2.84,1.88v.1c0,1.52,2.58,2.23,5.52,3.24,3.8,1.27,8.21,3.09,8.21,8.06v.1c0,6.03-4.51,8.77-10.39,8.77-3.8,0-8.06-1.27-11.66-4.1Z"/>
    <path class="cls-2" d="M300.32,256.57v-12.87h-3.24v-6.59h3.24v-6.94h7.7v6.94h6.39v6.59h-6.39v11.6c0,1.77.76,2.64,2.48,2.64,1.42,0,2.69-.36,3.8-.96v6.18c-1.62.96-3.5,1.57-6.08,1.57-4.71,0-7.91-1.88-7.91-8.16Z"/>
    <path class="cls-2" d="M318.01,250.84v-.1c0-7.75,5.52-14.14,13.43-14.14,9.07,0,13.23,7.04,13.23,14.75,0,.61-.05,1.32-.1,2.03h-18.9c.76,3.5,3.19,5.32,6.64,5.32,2.58,0,4.46-.81,6.59-2.79l4.41,3.9c-2.53,3.14-6.18,5.07-11.1,5.07-8.16,0-14.19-5.73-14.19-14.04ZM337.16,248.56c-.46-3.45-2.48-5.78-5.73-5.78s-5.27,2.28-5.88,5.78h11.6Z"/>
    <path class="cls-2" d="M350.39,237.11h7.7v5.47c1.57-3.75,4.1-6.18,8.67-5.98v8.06h-.41c-5.12,0-8.26,3.09-8.26,9.58v10.03h-7.7v-27.16Z"/>
    <path class="cls-2" d="M371.57,237.11h7.7v3.85c1.77-2.28,4.05-4.36,7.96-4.36,5.83,0,9.22,3.85,9.22,10.08v17.58h-7.7v-15.15c0-3.65-1.72-5.52-4.66-5.52s-4.81,1.88-4.81,5.52v15.15h-7.7v-27.16Z"/>
    <path class="cls-2" d="M419.51,228.8h7.8v35.47h-7.8v-35.47Z"/>
    <path class="cls-2" d="M435.38,237.11h7.7v3.85c1.77-2.28,4.05-4.36,7.96-4.36,5.83,0,9.22,3.85,9.22,10.08v17.58h-7.7v-15.15c0-3.65-1.72-5.52-4.66-5.52s-4.81,1.88-4.81,5.52v15.15h-7.7v-27.16Z"/>
    <path class="cls-2" d="M466.95,237.11h7.7v3.85c1.77-2.28,4.05-4.36,7.96-4.36,5.83,0,9.22,3.85,9.22,10.08v17.58h-7.7v-15.15c0-3.65-1.72-5.52-4.66-5.52s-4.81,1.88-4.81,5.52v15.15h-7.7v-27.16Z"/>
    <path class="cls-2" d="M497.2,250.84v-.1c0-7.8,6.28-14.14,14.75-14.14s14.64,6.23,14.64,14.04v.1c0,7.8-6.28,14.14-14.75,14.14s-14.65-6.23-14.65-14.04ZM518.99,250.84v-.1c0-4-2.89-7.5-7.14-7.5s-7.04,3.4-7.04,7.4v.1c0,4,2.89,7.5,7.15,7.5s7.04-3.4,7.04-7.4Z"/>
    <path class="cls-2" d="M528.22,237.11h8.16l6.08,18.19,6.13-18.19h8.01l-10.69,27.36h-6.99l-10.69-27.36Z"/>
    <path class="cls-2" d="M558.17,256.47v-.1c0-5.93,4.51-8.67,10.95-8.67,2.74,0,4.71.46,6.64,1.11v-.46c0-3.19-1.98-4.97-5.83-4.97-2.94,0-5.02.56-7.5,1.47l-1.93-5.88c2.99-1.32,5.93-2.18,10.54-2.18,4.21,0,7.25,1.12,9.17,3.04,2.03,2.03,2.94,5.02,2.94,8.67v15.76h-7.45v-2.94c-1.88,2.08-4.46,3.45-8.21,3.45-5.12,0-9.32-2.94-9.32-8.31ZM575.85,254.69v-1.37c-1.32-.61-3.04-1.01-4.92-1.01-3.29,0-5.32,1.32-5.32,3.75v.1c0,2.08,1.72,3.29,4.21,3.29,3.6,0,6.03-1.98,6.03-4.76Z"/>
    <path class="cls-2" d="M590.81,256.57v-12.87h-3.24v-6.59h3.24v-6.94h7.7v6.94h6.38v6.59h-6.38v11.6c0,1.77.76,2.64,2.48,2.64,1.42,0,2.69-.36,3.8-.96v6.18c-1.62.96-3.5,1.57-6.08,1.57-4.71,0-7.91-1.88-7.91-8.16Z"/>
    <path class="cls-2" d="M610.72,227.28h8.11v6.84h-8.11v-6.84ZM610.92,237.11h7.7v27.16h-7.7v-27.16Z"/>
    <path class="cls-2" d="M624.56,250.84v-.1c0-7.8,6.28-14.14,14.75-14.14s14.64,6.23,14.64,14.04v.1c0,7.8-6.28,14.14-14.75,14.14s-14.65-6.23-14.65-14.04ZM646.35,250.84v-.1c0-4-2.89-7.5-7.14-7.5s-7.04,3.4-7.04,7.4v.1c0,4,2.89,7.5,7.15,7.5s7.04-3.4,7.04-7.4Z"/>
    <path class="cls-2" d="M659.52,237.11h7.7v3.85c1.77-2.28,4.05-4.36,7.96-4.36,5.83,0,9.22,3.85,9.22,10.08v17.58h-7.7v-15.15c0-3.65-1.72-5.52-4.66-5.52s-4.81,1.88-4.81,5.52v15.15h-7.7v-27.16Z"/>
    <path class="cls-4" d="M54.04,294.44h4.45v25.34h-4.45v-25.34Z"/>
    <path class="cls-4" d="M66.71,294.44h4.13l13.57,17.52v-17.52h4.38v25.34h-3.73l-13.97-18.02v18.02h-4.38v-25.34Z"/>
    <path class="cls-4" d="M95.05,316.08l2.68-3.19c2.42,2.1,4.89,3.29,8,3.29,2.75,0,4.49-1.3,4.49-3.19v-.07c0-1.81-1.01-2.79-5.72-3.87-5.39-1.3-8.43-2.89-8.43-7.56v-.07c0-4.34,3.62-7.35,8.65-7.35,3.69,0,6.62,1.12,9.19,3.18l-2.39,3.37c-2.28-1.7-4.56-2.61-6.88-2.61-2.61,0-4.13,1.34-4.13,3v.07c0,1.95,1.16,2.82,6.04,3.98,5.36,1.3,8.11,3.22,8.11,7.42v.07c0,4.74-3.73,7.56-9.05,7.56-3.87,0-7.53-1.34-10.57-4.05Z"/>
    <path class="cls-4" d="M127.05,298.57h-8.04v-4.13h20.56v4.13h-8.04v21.21h-4.49v-21.21Z"/>
    <path class="cls-4" d="M145.98,294.44h4.45v25.34h-4.45v-25.34Z"/>
    <path class="cls-4" d="M164.88,298.57h-8.04v-4.13h20.56v4.13h-8.04v21.21h-4.49v-21.21Z"/>
    <path class="cls-4" d="M183.16,309.03v-14.59h4.45v14.41c0,4.71,2.43,7.2,6.41,7.2s6.37-2.35,6.37-7.02v-14.59h4.45v14.37c0,7.56-4.27,11.37-10.89,11.37s-10.79-3.8-10.79-11.15Z"/>
    <path class="cls-4" d="M218.63,298.57h-8.04v-4.13h20.56v4.13h-8.04v21.21h-4.49v-21.21Z"/>
    <path class="cls-4" d="M237.31,294.44h18.78v3.98h-14.33v6.59h12.7v3.98h-12.7v6.8h14.51v3.98h-18.97v-25.34Z"/>
  </g>
</svg>