<?xml version="1.0" encoding="UTF-8"?>
<svg id="Layer_1" xmlns="http://www.w3.org/2000/svg" version="1.1" viewBox="0 0 250.6 98.7">
  <!-- Generator: Adobe Illustrator 29.0.0, SVG Export Plug-In . SVG Version: 2.1.0 Build 186)  -->
  <defs>
    <style>
      .st0 {
        fill: #482580;
      }

      .st1 {
        fill: #231f20;
      }

      .st2 {
        fill: #565759;
      }

      .st3 {
        fill: #808285;
      }
    </style>
  </defs>
  <rect class="st3" y="41.8" width="250.6" height=".4"/>
  <g>
    <polygon class="st0" points=".7 1.3 .7 2 2.5 4.1 2.5 18 .1 18.7 .1 19.5 6.7 19.5 6.7 18.7 4.6 18.1 4.1 17.5 4.1 5.9 15.6 19.6 16.7 19.6 16.7 3.1 19.1 2.3 19.1 1.5 12.4 1.5 12.4 2.5 14.5 3 15 3.6 15 14.6 15 14.6 14.9 14.6 3.7 1.3 .7 1.3"/>
    <path class="st0" d="M29.4,13.4c0-3-1.7-5.6-4.3-5.6s-3.5,2-3.5,5.1,1.5,5.7,4.2,5.7,3.6-2.1,3.6-5.2M25.5,19.8c-3.3,0-6.4-2.1-6.4-6.5,0-4.4,3.3-6.7,6.4-6.7s6.4,2,6.4,6.4-3.4,6.8-6.4,6.8"/>
    <path class="st0" d="M64.7,12.1c0-3-1.7-3.6-3.7-3.6s-2.8,1.2-2.8,1.2v7.8l.5.7,1.8.6v.7h-6.3v-.7l1.8-.7V5c0-2.4-.6-3-1.9-3v-.6l4-1.4h.3s-.1,2.8-.1,4.9v3.8s2.6-2.1,4.4-2.1,4.3.9,4.3,4.2v6.7l.5.7,1.8.6v.7h-6.3v-.7l1.7-.7v-6c0,0,0,0,0,0Z"/>
    <path class="st0" d="M94.4,11.5c1.3,0,1.8-.3,1.8-1.6s-.8-2-2.6-2-3.2,1.6-3.2,3.8h4c0-.1,0-.1,0-.1ZM90.4,12.5c0,3.8,2.2,5.4,4.6,5.4,1.5,0,3.3-.6,3.3-.6l.3.5c-.7.7-2.5,2-4.8,2s-5.9-2.3-5.9-6.5,2.7-6.7,6-6.7,4.6,1.5,4.6,4.5-.1,1.4-.1,1.4h-8,0Z"/>
    <path class="st0" d="M101.5,19.3c-.2,0-.7-.3-.7-.9l-.2-2.6h1.2c.3,1.8,1.5,2.9,3.1,2.9s2.2-.8,2.2-1.9-.8-1.6-1.9-2.1l-1.4-.7c-2-1-3-1.8-3-3.8s1.8-3.6,4.5-3.6,3.4.7,3.4.7l-.3,3.2h-1.1c0-2-.8-2.7-2.5-2.7s-2.2.4-2.2,1.5.3,1.2,2.5,2.4l1.2.6c2.2,1.1,2.9,2.1,2.9,3.9s-2.2,3.6-4.4,3.6-2.6-.2-3.4-.5"/>
    <path class="st0" d="M126.9,11.5c1.3,0,1.8-.3,1.8-1.6s-.8-2-2.6-2-3.2,1.6-3.2,3.8h4c0-.1,0-.1,0-.1ZM122.9,12.5c0,3.8,2.1,5.3,4.6,5.4,1.5,0,3.3-.6,3.3-.6l.3.5c-.6.7-2.5,2-4.8,2s-5.9-2.3-5.9-6.5,2.7-6.7,6-6.7,4.6,1.5,4.6,4.5-.1,1.4-.1,1.4h-8,0Z"/>
    <path class="st0" d="M156.3,18.2l-.5-.7v-6.9c0-3.2-2-4.1-4.1-4.1s-4.3,2.1-4.3,2.1c0-1.1,0-2.2,0-2.2h-.2l-4,1.4v.6c1.5,0,1.9,1.4,1.9,3.8v5.7l-1.8.7v.7h6.2v-.7c0,0-1.7-.6-1.7-.6l-.5-.7v-7.8s1-1.3,2.7-1.3,3.6.6,3.6,3.6v6c0,0-1.8.7-1.8.7v.7h6.2v-.7c0,0-1.7-.6-1.7-.6h0Z"/>
    <path class="st0" d="M80.9,19.6l-2.9-8.1-3.3,8.1h-1.1l-3.3-10c-.5-1.2-.7-2-1.6-2v-.8h5.4v.8l-1.6.5,2.4,8.3,2.2-5.2.5-1.3-.7-2.1-.9-.2v-.8h5.2v.8l-1.6.5,2.8,8.3,2.9-8.2-1.8-.6v-.7h4.9v.8c-1.1.1-1.7.4-2.5,2.7l-3.3,9.3h-1.3Z"/>
    <path class="st0" d="M52.7,17.6s-.8.5-1.9.5-2.3-.7-2.3-2.4v-7.1h4.2v-.4h0l.3-2.2h-.5c0,0-.4.8-.4.8l-.2.2h-3.2c0,.1,0,.1,0,.1v-3.2l-1.6.3-.7,3.1-2.2.2v1.1c1.2,0,2.2.1,2.2,1.3s-.1,4.8-.1,6.3c0,2.8,1.1,3.8,2.8,3.8s2.8-.6,3.9-1.5c0,0-.3-.6-.3-.6Z"/>
    <path class="st0" d="M119.2,17.6s-.8.5-1.9.5-2.3-.7-2.3-2.4v-7.1h4.1v-.4h0l.3-2.2h-.5c0,0-.4.8-.4.8l-.2.2h-3.2c0,.1,0-3.1,0-3.1l-1.6.3-.7,3.1-2.2.2v1.1c1.2,0,2.2.1,2.2,1.3s-.1,4.8-.1,6.3c0,2.8,1.1,3.8,2.8,3.8s2.8-.6,3.9-1.5l-.3-.6h0Z"/>
    <path class="st0" d="M42.6,6.7h0s-.5-.2-1.4-.2c-1.9,0-3.9,3-3.9,3,0-1.7,0-3.1,0-3.1h-.2l-3.9,1.4v.6c1.5,0,1.9,1.3,1.9,3.6v5.9l-1.8.7v.7h6.2v-.7l-1.8-.6-.5-.7v-5.8c0-1.8,1.4-2.8,2.9-2.8s.6,0,.9.2l.4.6h.5s.4-3,.4-3h0Z"/>
    <path class="st0" d="M142,6.8h0s-.5-.2-1.4-.2c-1.9,0-3.9,3-3.9,3,0-1.7,0-3.1,0-3.1h-.2l-3.9,1.4v.6c1.5,0,1.9,1.3,1.9,3.6v5.9l-1.8.7v.7h6.2v-.7l-1.8-.6-.5-.7v-5.8c0-1.8,1.4-2.8,2.9-2.8s.6,0,.9.2l.4.6h.5s.4-3,.4-3h0Z"/>
    <rect class="st0" x="163.6" y="-.6" width=".4" height="25.3"/>
    <path class="st0" d="M181.5,8.3c-.1.1-.6.5-.6.7s.2.5.6,1l4.9,6.6c2,2.7,3.1,2,3.1,2.6s0,.3-.3.3c-.6,0-1.2,0-1.9,0s-1,0-1.7,0-.7,0-1.2-.7l-5.1-7c-.3-.4-.5-.7-.6-.7s-.6.4-1.2,1.1c-.4.4-.3.7-.3,1.3v3.3c0,2.4,2.5,1.5,2.5,2.5s-.1.3-.7.3-1.4,0-2.8,0-2.6,0-3.4,0-.8,0-.8-.2c0-1.3,2.1.4,2.1-3.5V4.8c0-3.1-2.7-1.8-2.7-2.9s.2-.4.5-.4c.5,0,1.3.1,3.1.1s3.1-.1,3.6-.1.5,0,.5.3c0,1-1.9-.4-1.9,2.5v5.9c0,.3,0,.6.1.6.1,0,.3-.1.6-.4l3.4-3.3c.7-.7,3.2-2.8,3.2-3.9s-1.6-.5-1.6-1,.2-.5.6-.5,2,.1,2.8.1,1.3-.1,2.4-.1.7,0,.7.4c0,.7-.8,0-3.3,2.2l-4.5,4.2h0Z"/>
    <path class="st0" d="M192.2,13.2c-.5,0-.6-.2-.6.6,0,2.2,1.6,4.2,3.8,4.2s2.8-1.4,3.2-1.4.3,0,.3.3c0,.6-2.1,2.7-4.8,2.7s-5-1.6-5-5.1,1.7-6.1,5-6.1c3.4,0,4.8,2.9,4.8,4.2s-.1.6-.3.6h-6.3ZM195.4,12.3c.4,0,.6,0,.6-.7s-.7-2.5-2.3-2.5-2.1,1.5-2.1,2.7,0,.5.1.5h3.7Z"/>
    <path class="st0" d="M201.2,3.8c0-1.5-1.7-.7-1.7-1.4s.4-.3,2-.9c2-.6,1.9-1,2.3-1s0,.7,0,2.1v14.7c0,1.8,1.9,1.5,1.9,2s-.1.3-.5.3-2.1,0-2.9,0-1.7,0-2.3,0-.4,0-.4-.3c0-.8,1.5.2,1.5-2.2V3.8h0Z"/>
    <path class="st0" d="M208.2,3.8c0-1.5-1.7-.7-1.7-1.4s.4-.3,2-.9c2-.6,1.9-1,2.3-1s0,.7,0,2.1v14.7c0,1.8,1.9,1.5,1.9,2s-.1.3-.5.3-2.1,0-2.9,0-1.7,0-2.3,0-.4,0-.4-.3c0-.8,1.5.2,1.5-2.2V3.8h0Z"/>
    <path class="st0" d="M218.4,19.6c-3.1,0-5.5-2.2-5.5-5.3s2.4-6,5.8-6,5.7,2.1,5.7,5.3-2.4,5.9-6,5.9h0ZM215.6,12.9c0,1.7.7,5.9,3.6,5.9,2,0,2.6-1.5,2.6-3.2s-.7-6.3-3.5-6.3c-2.2,0-2.6,1.8-2.7,3.7Z"/>
    <path class="st0" d="M225.4,22.3c0-1.5,1.7-2,1.9-2-.3-.2-1.1-.8-1.1-2.4s.5-1.8,1.4-2.5c-1.4-.9-2.1-1.5-2.1-3.2,0-2.5,2.1-3.9,4.6-3.9,1.8,0,2.8.9,3.6.9,1.5,0,1.5-1.6,1.8-1.6s.3.2.3.7c0,2.4-.7,2.5-1.1,2.7,0,.4,0,.1,0,.8,0,1.6-.9,4-4.7,4s-.8,0-1.3,0c-.8,0-1.1.5-1.1,1.1,0,1,.1,1.1,3.9,1.1,3.6,0,4.3,1.1,4.3,2.6s-1.1,2.7-2.4,3.2c-1.5.6-2.3.6-3.9.6s-4.1-.2-4.1-2.2h0ZM228.5,20.5c-.7,0-1,.7-1,1.3,0,1.7,1.7,2,2.9,2s3.5-.3,3.5-2-.9-1.2-5.3-1.2ZM230,9.1c-.5,0-2,.2-2,3s.5,3.1,2.1,3.1,2.1-1.5,2.1-2.9-.5-3.2-2.2-3.2h0Z"/>
    <path class="st0" d="M236.7,22.3c0-1.5,1.7-2,1.9-2-.3-.2-1.1-.8-1.1-2.3s.5-1.8,1.4-2.5c-1.4-.9-2.1-1.5-2.1-3.2,0-2.5,2-3.9,4.6-3.9s2.8.9,3.6.9c1.5,0,1.5-1.6,1.9-1.6s.3.2.3.7c0,2.4-.7,2.5-1.1,2.7,0,.4,0,.1,0,.8,0,1.6-.9,4-4.7,4s-.8,0-1.3,0c-.8,0-1.1.5-1.1,1.1,0,1,.1,1.1,3.9,1.1s4.3,1.1,4.3,2.6-1,2.7-2.4,3.2c-1.5.6-2.3.6-3.9.6s-4.1-.2-4.1-2.3h0ZM239.8,20.5c-.7,0-1,.7-1,1.3,0,1.7,1.7,2,2.9,2s3.5-.3,3.5-2-.9-1.2-5.3-1.2ZM241.3,9.1c-.5,0-2,.2-2,3s.5,3.1,2.1,3.1,2.1-1.5,2.1-2.9-.5-3.2-2.2-3.2Z"/>
  </g>
  <path class="st2" d="M41.9,89.2c-2.8,0-4.8,2.2-4.8,4.7h0c0,2.6,2,4.8,4.8,4.8s4.8-2.2,4.8-4.7h0c0-2.6-2-4.8-4.8-4.8ZM45,94c0,1.8-1.3,3.2-3.1,3.2s-3.1-1.5-3.1-3.2h0c0-1.8,1.3-3.3,3.1-3.3s3.1,1.5,3.1,3.3h0ZM53.7,93.7l-2.8-4.3h-1.7v9.2h1.6v-6.6l2.9,4.3h0l2.9-4.3v6.6h1.6v-9.2h-1.7l-2.8,4.3h0ZM5,89.2c-2.8,0-4.8,2.2-4.8,4.7H.1c0,2.6,2,4.8,4.8,4.8s4.8-2.2,4.8-4.7h0c0-2.6-2-4.8-4.8-4.8ZM8,94c0,1.8-1.3,3.2-3.1,3.2s-3.1-1.5-3.1-3.2h0c0-1.8,1.3-3.3,3.1-3.3s3.1,1.5,3.1,3.3h0ZM18.6,95.7l-4.9-6.3h-1.5v9.2h1.6v-6.5l5.1,6.5h1.3v-9.2h-1.6v6.3h0ZM31.9,97.2c-1.8,0-3-1.4-3-3.2h0c0-1.8,1.3-3.3,3-3.3s1.8.5,2.6,1.1l1-1.2c-.9-.8-1.9-1.4-3.6-1.4-2.8,0-4.7,2.1-4.7,4.7h0c0,2.7,2,4.8,4.7,4.8s2.8-.6,3.7-1.6l-1-1.1c-.8.7-1.5,1.2-2.6,1.2h0ZM102.4,90.8h2.9v7.7h1.6v-7.7h2.9v-1.5h-7.4v1.5ZM118.2,89.4l-2.6,4.1-2.6-4.1h-1.9l3.6,5.6v3.6h1.6v-3.7l3.6-5.5h-1.9,0ZM98.5,98.5h1.6v-9.2h-1.6v9.2ZM64.7,89.4h-3.6v9.2h1.6v-2.9h1.8c2,0,3.7-1.1,3.7-3.1h0c0-1.9-1.3-3.1-3.5-3.1h0ZM66.6,92.5c0,1-.8,1.6-2,1.6h-1.9v-3.3h1.9c1.2,0,2,.6,2,1.6h0s0,0,0,0ZM72,89.4h-1.6v9.2h6.4v-1.5h-4.8v-7.7ZM80.6,94.6h4.6v-1.4h-4.6v-2.4h5.2v-1.4h-6.8v9.2h6.9v-1.4h-5.2v-2.5h0ZM96.1,89.4h-1.8l-2.3,3.3-2.3-3.3h-1.9l3.2,4.5-3.3,4.7h1.8l2.4-3.5,2.4,3.5h1.9l-3.3-4.7s3.2-4.5,3.2-4.5Z"/>
  <path class="st1" d="M29.2,67.2c-1.7,0-2.8.3-3.9.8l.7,2.2c.9-.3,1.7-.5,2.8-.5s2.1.7,2.1,1.8v.2c-.7-.2-1.4-.4-2.4-.4-2.4,0-4,1-4,3.2h0c0,2,1.5,3.1,3.4,3.1s2.3-.5,3-1.3v1.1h2.7v-5.8c0-1.3-.3-2.4-1.1-3.2-.7-.7-1.8-1.1-3.4-1.1h0ZM31,73.8c0,1-.9,1.7-2.2,1.7s-1.5-.4-1.5-1.2h0c0-.9.7-1.4,2-1.4s1.3.2,1.8.4v.5h0ZM42,67.1c-1.4,0-2.3.8-2.9,1.6v-1.4h-2.8v9.9h2.8v-5.6c0-1.3.7-2,1.8-2s1.7.7,1.7,2v5.6h2.8v-6.4c0-2.3-1.2-3.7-3.4-3.7h0ZM54.2,77.3h2.9v-13h-2.9v13ZM18.6,74.1l-2.3-6.8h-3l3.9,10c-.2.5-.5.7-1,.7s-.8-.2-1.2-.4l-1,2c.7.4,1.5.7,2.5.7,1.7,0,2.5-.8,3.3-2.8l3.8-10.2h-2.9l-2.2,6.8h0ZM11.8,68.6h0c0-1.3-.4-2.3-1.1-3-.9-.8-2.1-1.3-3.8-1.3H.9v13h2.9v-4.2h2.2l2.8,4.2h3.3l-3.2-4.6c1.6-.6,2.8-1.9,2.8-4h0ZM8.9,68.8c0,1.1-.8,1.8-2.2,1.8h-2.9v-3.7h2.8c1.4,0,2.2.6,2.2,1.9h0s0,0,0,0ZM65.9,67.1c-1.4,0-2.3.8-2.9,1.6v-1.4h-2.8v9.9h2.8v-5.6c0-1.3.7-2,1.8-2s1.7.7,1.7,2v5.6h2.8v-6.4c0-2.3-1.2-3.7-3.4-3.7h0ZM109,72.9c0,1.3-.7,2-1.8,2s-1.7-.7-1.7-2v-5.6h-2.8v6.4c0,2.3,1.2,3.7,3.4,3.7s2.3-.8,2.9-1.6v1.4h2.8v-9.9h-2.8v5.6h0ZM98.2,64.8h-2.8v2.5h-1.2v2.4h1.2v4.7c0,2.3,1.2,3,2.9,3s1.6-.2,2.2-.6v-2.3c-.4.2-.9.3-1.4.3s-.9-.3-.9-1v-4.2h2.3v-2.4h-2.3v-2.5h0ZM117.8,64.8h-2.8v2.5h-1.2v2.4h1.2v4.7c0,2.3,1.2,3,2.9,3s1.6-.2,2.2-.6v-2.3c-.4.2-.9.3-1.4.3s-.9-.3-.9-1v-4.2h2.3v-2.4h-2.3v-2.5h0ZM131.4,72.5c0-2.8-1.5-5.4-4.8-5.4s-4.9,2.3-4.9,5.2h0c0,3.1,2.2,5.2,5.2,5.2s3.1-.7,4.1-1.9l-1.6-1.4c-.8.7-1.5,1-2.4,1s-2.1-.7-2.4-1.9h6.9c0-.3,0-.5,0-.7h0ZM124.4,71.5c.2-1.3,1-2.1,2.1-2.1s1.9.8,2.1,2.1h-4.2ZM76.2,71.3c-1.1-.4-2-.6-2-1.2h0c0-.4.3-.7,1-.7s1.7.3,2.7.9l1.1-1.9c-1.1-.7-2.4-1.2-3.7-1.2-2,0-3.6,1.1-3.6,3.2h0c0,2,1.6,2.6,3,3,1.1.3,2.1.5,2.1,1.2h0c0,.5-.4.8-1.2.8s-2.1-.4-3.1-1.2l-1.2,1.9c1.3,1,2.9,1.5,4.3,1.5,2.2,0,3.8-1,3.8-3.2h0c0-1.9-1.6-2.5-3-3h0ZM89.2,66.2h3v-2.5h-3v2.5ZM84.5,64.8h-2.8v2.5h-1.2v2.4h1.2v4.7c0,2.3,1.2,3,2.9,3s1.6-.2,2.2-.6v-2.3c-.4.2-.9.3-1.4.3s-.9-.3-.9-1v-4.2h2.3v-2.4h-2.3v-2.5h0ZM89.3,77.3h2.8v-9.9h-2.8v9.9Z"/>
</svg>