<?xml version="1.0" encoding="UTF-8"?>
<svg id="Layer_1" data-name="Layer 1" xmlns="http://www.w3.org/2000/svg" viewBox="0 0 288 134.83">
  <defs>
    <style>
      .cls-1 {
        fill: #482580;
      }

      .cls-2 {
        fill: #231f20;
      }

      .cls-3 {
        fill: #808285;
      }

      .cls-4 {
        fill: #565759;
      }
    </style>
  </defs>
  <rect class="cls-3" x="19.25" y="60.54" width="250.61" height=".44"/>
  <g>
    <polygon class="cls-1" points="19.98 20.08 19.98 20.8 21.79 22.83 21.78 36.72 19.35 37.4 19.35 38.22 25.94 38.22 25.94 37.4 23.86 36.85 23.33 36.2 23.34 24.6 34.88 38.36 35.9 38.36 35.9 21.83 38.35 21.09 38.35 20.23 31.66 20.23 31.66 21.2 33.79 21.73 34.3 22.39 34.3 33.37 34.3 33.36 34.16 33.36 22.96 20.08 19.98 20.08"/>
    <path class="cls-1" d="M48.63,32.14c0-3.04-1.66-5.63-4.26-5.63-2.34,0-3.51,2.04-3.51,5.08,0,3.04,1.47,5.71,4.21,5.71,2.34,0,3.56-2.12,3.56-5.16M44.71,38.52c-3.26,0-6.39-2.09-6.38-6.55,0-4.43,3.32-6.66,6.39-6.66,3.21,0,6.44,2.01,6.44,6.44,0,4.27-3.43,6.77-6.44,6.76"/>
    <path class="cls-1" d="M83.96,30.85c0-3.04-1.71-3.64-3.69-3.64-1.69,0-2.77,1.25-2.77,1.25v2.01s0,5.82,0,5.82l.52.65,1.76.61v.69s-6.32,0-6.32,0v-.71s1.79-.68,1.79-.68v-13.1c0-2.37-.6-3.02-1.9-3.02v-.62s4.02-1.36,4.02-1.36h.27s-.14,2.8-.14,4.89v3.78s2.61-2.09,4.4-2.09c2.23,0,4.29.93,4.29,4.21v6.74s.52.65.52.65l1.76.61v.69s-6.33,0-6.33,0v-.71s1.74-.66,1.74-.66l.08-6.02Z"/>
    <path class="cls-1" d="M113.63,30.23c1.3-.05,1.77-.3,1.77-1.63,0-1.14-.82-2.01-2.55-2.01s-3.21,1.6-3.21,3.78l4-.13ZM109.63,31.26c0,3.78,2.15,5.35,4.59,5.36,1.52,0,3.34-.62,3.34-.62l.27.52c-.65.65-2.47,2.04-4.76,2.04-3.1,0-5.87-2.31-5.87-6.55,0-3.86,2.67-6.66,5.98-6.66,2.58,0,4.59,1.55,4.59,4.49,0,.76-.14,1.44-.14,1.44h-8.02Z"/>
    <path class="cls-1" d="M120.77,38.06c-.19-.08-.68-.35-.71-.92l-.16-2.58h1.2c.33,1.77,1.52,2.91,3.07,2.91s2.2-.81,2.2-1.9c0-1.03-.84-1.58-1.87-2.12l-1.39-.71c-1.98-1.01-2.96-1.82-2.96-3.78,0-2.44,1.77-3.61,4.51-3.61,1.93,0,3.42.73,3.42.73l-.35,3.18h-1.11c0-1.99-.81-2.72-2.47-2.72-1.11,0-2.15.43-2.15,1.52,0,.87.35,1.25,2.5,2.37l1.22.62c2.23,1.14,2.85,2.09,2.85,3.94,0,2.23-2.23,3.56-4.4,3.56-1.39,0-2.61-.16-3.4-.49"/>
    <path class="cls-1" d="M146.14,30.24c1.3-.05,1.77-.3,1.77-1.63,0-1.14-.81-2.01-2.55-2.01-1.82,0-3.21,1.6-3.21,3.78l4-.13ZM142.14,31.27c0,3.78,2.15,5.35,4.59,5.36,1.52,0,3.34-.62,3.34-.62l.27.52c-.65.65-2.47,2.04-4.76,2.04-3.1,0-5.87-2.31-5.87-6.55,0-3.86,2.67-6.66,5.98-6.66,2.58,0,4.59,1.55,4.59,4.49,0,.76-.14,1.44-.14,1.44h-8.02Z"/>
    <path class="cls-1" d="M175.59,36.97l-.52-.65.03-6.88c0-3.18-2.06-4.08-4.18-4.08-1.79,0-4.32,2.09-4.32,2.09,0-1.14.06-2.17.06-2.17h-.22s-3.97,1.44-3.97,1.44v.65c1.52,0,1.93,1.36,1.93,3.81v5.71s-1.8.68-1.8.68v.71s6.25,0,6.25,0l.05-.69-1.76-.61-.52-.65v-7.8s.96-1.28,2.67-1.28,3.59.63,3.59,3.64l-.09,6.03-1.74.65v.71s6.25,0,6.25,0l.05-.69-1.76-.61Z"/>
    <path class="cls-1" d="M100.16,38.38l-2.91-8.07-3.34,8.07h-1.14s-3.27-9.97-3.27-9.97c-.46-1.25-.73-1.99-1.6-1.99v-.76s5.37,0,5.37,0v.77s-1.63.54-1.63.54l2.44,8.26,2.15-5.16.5-1.31-.74-2.1-.93-.23v-.76s5.19,0,5.19,0v.81s-1.64.49-1.64.49l2.75,8.26,2.87-8.21-1.85-.65v-.71s4.87,0,4.87,0v.76c-1.11.14-1.66.43-2.53,2.66l-3.28,9.29h-1.28Z"/>
    <path class="cls-1" d="M71.94,36.36s-.76.49-1.9.49c-1.22,0-2.34-.68-2.31-2.37l.11-7.12h4.02s0,0,0,0h.04s.06-.44.06-.44h0s.27-2.23.27-2.23l-.52-.09-.39.85-.22.19-3.2.12h0s-.03,0-.03,0v-3.24s-1.58.27-1.58.27l-.68,3.07-2.23.22v1.06c1.22,0,2.23.11,2.23,1.28,0,1.17-.11,4.84-.11,6.31,0,2.77,1.06,3.81,2.83,3.81,1.52,0,2.77-.62,3.91-1.55l-.3-.63Z"/>
    <path class="cls-1" d="M138.47,36.38s-.76.49-1.9.49c-1.22,0-2.34-.68-2.31-2.37l.11-7.12h4.02s0,0,0,0h0s.05-.44.05-.44h0s.27-2.23.27-2.23l-.52-.09-.39.85-.22.19-3.2.12h0s0,0,0,0v-3.24s-1.58.27-1.58.27l-.68,3.07-2.23.22v1.06c1.22,0,2.23.11,2.23,1.28,0,1.17-.11,4.84-.11,6.31,0,2.77,1.06,3.81,2.83,3.81,1.52,0,2.77-.62,3.91-1.55l-.3-.63Z"/>
    <path class="cls-1" d="M61.82,25.48h0s-.47-.16-1.36-.16c-1.9,0-3.89,2.99-3.89,2.99,0-1.66.06-3.07.06-3.07h-.22s-3.89,1.44-3.89,1.44v.65c1.47,0,1.93,1.33,1.93,3.59v5.92s-1.8.68-1.8.68v.71s6.25,0,6.25,0v-.69s-1.76-.61-1.76-.61l-.52-.65v-5.82c0-1.79,1.42-2.8,2.94-2.8.31,0,.63.08.9.17l.43.63.52.04.4-3.01Z"/>
    <path class="cls-1" d="M161.23,25.52h0s-.47-.16-1.36-.16c-1.9,0-3.89,2.99-3.89,2.99,0-1.66.06-3.07.06-3.07h-.22s-3.89,1.44-3.89,1.44v.65c1.47,0,1.93,1.33,1.93,3.59v5.92s-1.8.68-1.8.68v.71s6.25,0,6.25,0v-.69s-1.76-.61-1.76-.61l-.52-.65v-5.82c0-1.79,1.42-2.8,2.94-2.8.31,0,.63.08.9.17l.43.63.52.04.4-3.01Z"/>
    <rect class="cls-1" x="182.87" y="18.14" width=".41" height="25.3"/>
    <path class="cls-1" d="M200.73,27.01c-.15.13-.56.51-.56.74s.23.54.62,1.05l4.89,6.58c1.99,2.72,3.12,2,3.12,2.64,0,.18-.03.33-.33.33-.56,0-1.23-.1-1.92-.1-.49,0-1,.1-1.71.1-.49,0-.74-.05-1.25-.74l-5.09-6.99c-.33-.44-.49-.72-.64-.72-.2,0-.64.43-1.2,1.07-.38.44-.34.67-.34,1.26v3.35c0,2.36,2.51,1.54,2.51,2.46,0,.23-.1.3-.72.3-.69,0-1.38-.1-2.84-.1-1.23,0-2.56.1-3.36.1-.48,0-.79-.02-.79-.2,0-1.28,2.05.38,2.05-3.48v-11.14c0-3.1-2.68-1.79-2.68-2.92,0-.28.21-.38.52-.38.49,0,1.33.11,3.07.11,1.43,0,3.05-.1,3.56-.1.23,0,.54,0,.54.31,0,1.03-1.85-.35-1.85,2.46v5.87c0,.26-.03.62.13.59.15.02.31-.1.64-.44l3.38-3.3c.72-.72,3.2-2.79,3.2-3.94,0-.79-1.56-.46-1.56-1.05,0-.46.25-.48.59-.48.25,0,2.02.1,2.79.1.64,0,1.31-.1,2.41-.1.21,0,.67-.03.67.43,0,.69-.82-.08-3.3,2.17l-4.51,4.17Z"/>
    <path class="cls-1" d="M211.42,31.92c-.46,0-.56-.18-.56.64,0,2.2,1.56,4.2,3.79,4.2,1.51,0,2.77-1.36,3.18-1.36.1,0,.26.03.26.31,0,.64-2.15,2.66-4.79,2.66-2.54,0-5.04-1.61-5.04-5.12,0-2.95,1.67-6.15,4.97-6.14,3.43,0,4.81,2.92,4.81,4.25,0,.56-.15.56-.31.56h-6.3ZM214.67,31.02c.43,0,.59.02.59-.69,0-.97-.71-2.48-2.33-2.48s-2.1,1.51-2.1,2.69c0,.41.05.49.13.49h3.71Z"/>
    <path class="cls-1" d="M220.41,22.53c0-1.51-1.69-.69-1.69-1.43,0-.44.39-.33,2.02-.9,1.97-.56,1.9-1.02,2.33-1.02.33,0,.05.72.05,2.15v14.67c-.01,1.82,1.88,1.46,1.88,2.02,0,.25-.1.33-.54.33-.51,0-2.1-.1-2.87-.1-.59,0-1.74.1-2.28.1-.21,0-.44,0-.44-.26,0-.79,1.51.23,1.51-2.18v-13.39Z"/>
    <path class="cls-1" d="M227.42,22.54c0-1.51-1.69-.69-1.69-1.43,0-.44.39-.33,2.02-.9,1.97-.56,1.9-1.02,2.33-1.02.33,0,.05.71.05,2.15v14.67c0,1.82,1.88,1.46,1.88,2.03,0,.26-.1.33-.54.33-.51,0-2.1-.1-2.87-.1-.59,0-1.74.1-2.28.1-.2,0-.44,0-.44-.26,0-.79,1.51.23,1.51-2.18v-13.39Z"/>
    <path class="cls-1" d="M237.67,38.38c-3.1,0-5.5-2.16-5.5-5.3,0-3.35,2.39-5.96,5.82-5.96,3.2,0,5.66,2.13,5.66,5.35,0,3.48-2.44,5.91-5.97,5.91ZM234.88,31.62c-.08,1.69.74,5.86,3.58,5.87,2,0,2.59-1.48,2.59-3.22,0-2.05-.74-6.32-3.5-6.33-2.23,0-2.59,1.84-2.67,3.68Z"/>
    <path class="cls-1" d="M244.65,41.05c0-1.54,1.66-2,1.92-2-.26-.23-1.1-.8-1.1-2.36,0-1.05.46-1.82,1.36-2.46-1.38-.87-2.1-1.54-2.1-3.25,0-2.46,2.05-3.87,4.59-3.86,1.76,0,2.76.9,3.61.9,1.51,0,1.46-1.61,1.84-1.61.23,0,.28.23.28.69,0,2.43-.72,2.48-1.13,2.74.03.44,0,.1.03.77.05,1.61-.93,4.02-4.74,4.02-.39,0-.79-.05-1.31-.05-.77,0-1.08.51-1.08,1.12,0,1,.15,1.12,3.89,1.13,3.59,0,4.33,1.08,4.33,2.64,0,1.51-1.05,2.69-2.38,3.2-1.51.59-2.33.64-3.95.64-1.02,0-4.07-.23-4.07-2.25ZM247.75,39.28c-.69,0-1.02.66-1.03,1.28,0,1.69,1.69,1.97,2.87,1.97,1.33,0,3.46-.28,3.46-2.02,0-1.18-.9-1.23-5.3-1.23ZM249.22,27.86c-.46,0-2,.21-2,3,0,1.28.54,3.07,2.1,3.07,1.64,0,2.1-1.48,2.1-2.87,0-1.43-.48-3.2-2.2-3.2Z"/>
    <path class="cls-1" d="M255.98,41.05c0-1.54,1.66-2,1.92-2-.26-.23-1.1-.79-1.1-2.35,0-1.05.46-1.82,1.36-2.46-1.38-.87-2.1-1.54-2.1-3.25,0-2.45,2.05-3.86,4.58-3.86,1.77,0,2.77.9,3.61.9,1.51,0,1.46-1.61,1.85-1.61.23,0,.28.23.28.69,0,2.43-.72,2.48-1.13,2.74.03.44,0,.1.03.77.05,1.62-.93,4.02-4.74,4.02-.38,0-.79-.05-1.31-.05-.77,0-1.08.51-1.08,1.12,0,1,.15,1.13,3.89,1.13,3.59,0,4.33,1.08,4.33,2.64,0,1.51-1.05,2.69-2.38,3.2-1.51.59-2.33.64-3.94.64-1.02,0-4.07-.23-4.07-2.26ZM259.08,39.29c-.69,0-1.03.66-1.03,1.28,0,1.69,1.69,1.97,2.87,1.97,1.33,0,3.46-.28,3.46-2.02,0-1.18-.9-1.23-5.3-1.23ZM260.55,27.87c-.46,0-2,.2-2,2.99,0,1.28.54,3.07,2.1,3.07,1.64,0,2.1-1.49,2.1-2.86,0-1.43-.49-3.2-2.2-3.2Z"/>
  </g>
  <path class="cls-4" d="M61.16,107.95c-2.82,0-4.81,2.16-4.81,4.74v.03c0,2.58,1.97,4.72,4.78,4.72s4.81-2.16,4.81-4.74v-.03c0-2.58-1.97-4.72-4.78-4.72ZM64.25,112.72c0,1.78-1.27,3.22-3.09,3.22s-3.12-1.47-3.12-3.25v-.03c0-1.78,1.27-3.24,3.09-3.24s3.12,1.48,3.12,3.26v.03ZM72.93,112.44l-2.79-4.34h-1.72v9.17h1.58v-6.55l2.87,4.3h.05l2.89-4.32v6.58h1.61v-9.17h-1.72l-2.79,4.34ZM24.21,107.95c-2.82,0-4.81,2.16-4.81,4.74v.03c0,2.58,1.97,4.72,4.78,4.72s4.81-2.16,4.81-4.74v-.03c0-2.58-1.97-4.72-4.78-4.72ZM27.3,112.72c0,1.78-1.27,3.22-3.09,3.22s-3.12-1.47-3.12-3.25v-.03c0-1.78,1.27-3.24,3.09-3.24s3.12,1.48,3.12,3.26v.03ZM37.88,114.45l-4.91-6.34h-1.49v9.17h1.58v-6.52l5.06,6.52h1.35v-9.17h-1.58v6.34ZM51.13,115.94c-1.75,0-3.03-1.45-3.03-3.25v-.03c0-1.79,1.28-3.24,3.03-3.24,1.05,0,1.84.46,2.57,1.14l1.03-1.19c-.88-.84-1.9-1.43-3.59-1.43-2.78,0-4.73,2.13-4.73,4.74v.03c0,2.63,1.99,4.72,4.67,4.72,1.71,0,2.76-.63,3.72-1.63l-1.03-1.05c-.79.73-1.51,1.18-2.63,1.18ZM121.67,109.6h2.91v7.68h1.62v-7.68h2.91v-1.49h-7.44v1.49ZM137.47,108.11l-2.59,4.05-2.55-4.05h-1.91l3.64,5.55v3.62h1.62v-3.66l3.64-5.52h-1.85ZM117.74,117.28h1.61v-9.17h-1.61v9.17ZM83.95,108.11h-3.62v9.17h1.61v-2.95h1.82c2.02,0,3.67-1.07,3.67-3.13v-.03c0-1.85-1.34-3.07-3.48-3.07ZM85.8,111.24c0,.96-.76,1.64-1.98,1.64h-1.87v-3.3h1.87c1.21,0,1.98.56,1.98,1.64v.03ZM91.23,108.11h-1.61v9.17h6.43v-1.47h-4.82v-7.7ZM99.87,113.37h4.6v-1.44h-4.6v-2.38h5.19v-1.44h-6.8v9.17h6.86v-1.44h-5.25v-2.46ZM115.32,108.11h-1.85l-2.29,3.33-2.28-3.33h-1.9l3.18,4.51-3.31,4.66h1.85l2.41-3.5,2.42,3.5h1.9l-3.33-4.69,3.2-4.48Z"/>
  <path class="cls-2" d="M48.47,85.96c-1.69,0-2.77.32-3.86.8l.71,2.15c.91-.33,1.67-.54,2.75-.54,1.41,0,2.13.65,2.13,1.82v.17c-.71-.24-1.43-.41-2.43-.41-2.36,0-4.01,1-4.01,3.17v.04c0,1.97,1.54,3.04,3.41,3.04,1.37,0,2.32-.5,3.01-1.26v1.08h2.73v-5.77c0-1.34-.33-2.43-1.08-3.17-.71-.71-1.82-1.11-3.36-1.11ZM50.23,92.51c0,1.02-.89,1.74-2.21,1.74-.91,0-1.54-.45-1.54-1.21v-.04c0-.89.74-1.37,1.95-1.37.69,0,1.32.15,1.8.37v.5ZM61.25,85.89c-1.43,0-2.26.76-2.91,1.6v-1.41h-2.82v9.95h2.82v-5.55c0-1.34.69-2.02,1.76-2.02s1.71.69,1.71,2.02v5.55h2.82v-6.44c0-2.28-1.24-3.69-3.38-3.69ZM73.44,96.02h2.86v-12.99h-2.86v12.99ZM37.85,92.85l-2.26-6.77h-2.99l3.9,9.98c-.24.5-.5.65-.98.65-.37,0-.84-.17-1.21-.39l-.95,2.04c.72.43,1.48.69,2.51.69,1.69,0,2.51-.76,3.27-2.78l3.82-10.19h-2.93l-2.17,6.77ZM31.03,87.36v-.04c0-1.22-.39-2.25-1.11-2.97-.85-.85-2.13-1.32-3.79-1.32h-5.94v12.99h2.86v-4.16h2.25l2.78,4.16h3.34l-3.17-4.64c1.65-.61,2.78-1.93,2.78-4.03ZM28.13,87.5c0,1.09-.8,1.84-2.19,1.84h-2.9v-3.73h2.84c1.39,0,2.25.63,2.25,1.86v.04ZM85.17,85.89c-1.43,0-2.26.76-2.91,1.6v-1.41h-2.82v9.95h2.82v-5.55c0-1.34.69-2.02,1.76-2.02s1.71.69,1.71,2.02v5.55h2.82v-6.44c0-2.28-1.24-3.69-3.38-3.69ZM128.27,91.62c0,1.34-.69,2.02-1.76,2.02s-1.71-.69-1.71-2.02v-5.55h-2.82v6.44c0,2.28,1.24,3.69,3.38,3.69,1.43,0,2.27-.76,2.91-1.6v1.41h2.82v-9.95h-2.82v5.55ZM117.45,83.53h-2.82v2.54h-1.19v2.41h1.19v4.71c0,2.3,1.17,2.99,2.89,2.99.95,0,1.63-.22,2.23-.58v-2.26c-.41.22-.87.35-1.39.35-.63,0-.91-.32-.91-.97v-4.25h2.34v-2.41h-2.34v-2.54ZM137.09,83.53h-2.82v2.54h-1.19v2.41h1.19v4.71c0,2.3,1.17,2.99,2.89,2.99.95,0,1.63-.22,2.23-.58v-2.26c-.41.22-.87.35-1.39.35-.63,0-.91-.32-.91-.97v-4.25h2.34v-2.41h-2.34v-2.54ZM150.69,91.29c0-2.82-1.52-5.4-4.84-5.4-2.9,0-4.92,2.34-4.92,5.18v.04c0,3.04,2.21,5.14,5.2,5.14,1.8,0,3.13-.71,4.06-1.86l-1.61-1.43c-.78.72-1.47,1.02-2.41,1.02-1.26,0-2.15-.67-2.43-1.95h6.92c.02-.26.04-.52.04-.74ZM143.69,90.27c.22-1.28.98-2.12,2.15-2.12s1.93.85,2.1,2.12h-4.25ZM95.47,90.01c-1.08-.37-2.02-.63-2.02-1.19v-.04c0-.39.35-.69,1.04-.69.72,0,1.71.35,2.69.93l1.08-1.95c-1.08-.72-2.45-1.15-3.71-1.15-2,0-3.64,1.13-3.64,3.15v.04c0,1.93,1.58,2.58,2.97,2.99,1.09.33,2.06.54,2.06,1.15v.04c0,.45-.37.74-1.19.74-.93,0-2.06-.41-3.14-1.19l-1.21,1.86c1.32,1.04,2.88,1.5,4.27,1.5,2.15,0,3.8-1,3.8-3.21v-.04c0-1.82-1.61-2.49-3.01-2.95ZM108.44,84.98h2.97v-2.51h-2.97v2.51ZM103.78,83.53h-2.82v2.54h-1.19v2.41h1.19v4.71c0,2.3,1.17,2.99,2.89,2.99.95,0,1.63-.22,2.23-.58v-2.26c-.41.22-.87.35-1.39.35-.63,0-.91-.32-.91-.97v-4.25h2.34v-2.41h-2.34v-2.54ZM108.51,96.02h2.82v-9.95h-2.82v9.95Z"/>
</svg>